<svg xmlns="http://www.w3.org/2000/svg" width="99" height="22" viewBox="0 0 99 22">
  <g id="Billions_Text_Logo" data-name="Billions Text Logo" opacity="0.08">
    <g id="Group_40" data-name="Group 40" transform="translate(0 0)">
      <path id="Path_258" data-name="Path 258" d="M122,966.7V944.88h3.119v7.937a8.258,8.258,0,0,1,1.828-1.333,4.573,4.573,0,0,1,2.171-.509,4.937,4.937,0,0,1,2.447.577,5.539,5.539,0,0,1,1.7,1.445,4.764,4.764,0,0,1,.873,1.954,22.679,22.679,0,0,1,.231,3.961,23.215,23.215,0,0,1-.231,4.006,4.649,4.649,0,0,1-.873,1.954,5.28,5.28,0,0,1-1.7,1.445,5.04,5.04,0,0,1-2.447.562,5.156,5.156,0,0,1-4-1.8V966.7H122Zm6.178-12.595q-2.194,0-2.626,1.573a12.124,12.124,0,0,0-.433,3.235,12.289,12.289,0,0,0,.433,3.28q.433,1.573,2.626,1.573t2.634-1.513a11.934,11.934,0,0,0,.44-3.339,11.766,11.766,0,0,0-.44-3.295Q130.371,954.105,128.178,954.1Z" transform="translate(-122 -944.88)" fill="#fff"/>
      <path id="Path_259" data-name="Path 259" d="M565.65,948.01v-3.13h3.119v3.13Zm0,18.69V951.155h3.119V966.7Z" transform="translate(-549.713 -944.88)" fill="#fff"/>
      <path id="Path_260" data-name="Path 260" d="M767.13,962.941V944.88h3.119v17.806q0,1.078,1.164,1.078h1.059V966.7H771.1a4.671,4.671,0,0,1-2.835-.831A3.4,3.4,0,0,1,767.13,962.941Z" transform="translate(-743.956 -944.88)" fill="#fff"/>
      <path id="Path_261" data-name="Path 261" d="M986.46,962.941V944.88h3.119v17.806q0,1.078,1.164,1.078H991.8V966.7h-1.373a4.671,4.671,0,0,1-2.835-.831A3.4,3.4,0,0,1,986.46,962.941Z" transform="translate(-955.407 -944.88)" fill="#fff"/>
      <path id="Path_262" data-name="Path 262" d="M1208.29,948.01v-3.13h3.119v3.13Zm0,18.69V951.155h3.119V966.7Z" transform="translate(-1169.269 -944.88)" fill="#fff"/>
      <path id="Path_263" data-name="Path 263" d="M1388.57,1121.887a13.269,13.269,0,0,1,.388-3.729,5.943,5.943,0,0,1,1.283-2.217,7.225,7.225,0,0,1,1.769-1.348,7.014,7.014,0,0,1,5.872,0,7.194,7.194,0,0,1,1.776,1.348,5.936,5.936,0,0,1,1.283,2.217,13.287,13.287,0,0,1,.388,3.729,13.5,13.5,0,0,1-.388,3.774,5.938,5.938,0,0,1-1.283,2.216,6.736,6.736,0,0,1-1.776,1.348,7.165,7.165,0,0,1-5.872,0,6.767,6.767,0,0,1-1.769-1.348,5.932,5.932,0,0,1-1.283-2.216A13.5,13.5,0,0,1,1388.57,1121.887Zm9.655.03a11.254,11.254,0,0,0-.172-2.381,4.229,4.229,0,0,0-.59-1.318,2.886,2.886,0,0,0-2.507-1.138,2.839,2.839,0,0,0-2.507,1.138,3.66,3.66,0,0,0-.6,1.318,12.068,12.068,0,0,0-.156,2.351,12.527,12.527,0,0,0,.156,2.4,3.529,3.529,0,0,0,.6,1.31,2.838,2.838,0,0,0,2.507,1.138,2.885,2.885,0,0,0,2.507-1.138,4.049,4.049,0,0,0,.59-1.3A11.254,11.254,0,0,0,1398.225,1121.917Z" transform="translate(-1343.073 -1107.855)" fill="#fff"/>
      <path id="Path_264" data-name="Path 264" d="M1835.14,1129.674V1114.13h3.119v1.662h.06a4.835,4.835,0,0,1,4.029-1.842,5.44,5.44,0,0,1,3.484,1.378,4.892,4.892,0,0,1,1.679,4.014v10.333h-3.119v-9.255a3.343,3.343,0,0,0-.873-2.456,2.929,2.929,0,0,0-2.171-.884,2.983,2.983,0,0,0-2.216.884,3.343,3.343,0,0,0-.873,2.456v9.255Z" transform="translate(-1773.601 -1107.855)" fill="#fff"/>
      <path id="Path_265" data-name="Path 265" d="M2243.9,1127.094l2.178-2.156a6.717,6.717,0,0,0,4.88,1.992,4.324,4.324,0,0,0,2.194-.5,1.62,1.62,0,0,0,.865-1.49q0-1.363-1.9-1.527l-2.746-.255a5.287,5.287,0,0,1-3.194-1.273,3.963,3.963,0,0,1-1.269-3.13,4.154,4.154,0,0,1,1.656-3.579,6.783,6.783,0,0,1,4.118-1.213,9.4,9.4,0,0,1,3.477.576,9.525,9.525,0,0,1,2.6,1.535l-1.925,2.276a10.46,10.46,0,0,0-1.91-1.033,5.848,5.848,0,0,0-2.238-.4,3.1,3.1,0,0,0-2.074.532,1.738,1.738,0,0,0-.582,1.34,1.317,1.317,0,0,0,.433.944,2.562,2.562,0,0,0,1.612.524l2.567.179a4.554,4.554,0,0,1,3.447,1.49,4.965,4.965,0,0,1,1.045,3.168,4,4,0,0,1-1.865,3.534,8.022,8.022,0,0,1-4.551,1.243A9.673,9.673,0,0,1,2243.9,1127.094Z" transform="translate(-2167.678 -1107.865)" fill="#fff"/>
    </g>
    <ellipse id="Ellipse_8" data-name="Ellipse 8" cx="3.273" cy="3.285" rx="3.273" ry="3.285" transform="translate(92.454 15.079)" fill="#1ce783"/>
  </g>
</svg>
