<svg id="Logo_9" xmlns="http://www.w3.org/2000/svg" width="90" height="20" viewBox="0 0 90 20">
  <g id="Group_40" data-name="Group 40" transform="translate(0 0)">
    <path id="Path_258" data-name="Path 258" d="M122,964.716V944.88h2.835V952.1a7.5,7.5,0,0,1,1.662-1.212,4.157,4.157,0,0,1,1.974-.463,4.488,4.488,0,0,1,2.225.524,5.036,5.036,0,0,1,1.547,1.314,4.332,4.332,0,0,1,.794,1.777,20.618,20.618,0,0,1,.21,3.6,21.106,21.106,0,0,1-.21,3.642,4.226,4.226,0,0,1-.794,1.777,4.8,4.8,0,0,1-1.547,1.314,4.582,4.582,0,0,1-2.225.511,4.687,4.687,0,0,1-3.636-1.634v1.47H122Zm5.616-11.45q-1.994,0-2.387,1.43a11.022,11.022,0,0,0-.394,2.941,11.172,11.172,0,0,0,.394,2.981q.393,1.43,2.387,1.43t2.394-1.375a10.849,10.849,0,0,0,.4-3.036,10.7,10.7,0,0,0-.4-3Q129.61,953.267,127.616,953.266Z" transform="translate(-122 -944.88)" fill="#fff"/>
    <path id="Path_259" data-name="Path 259" d="M565.65,947.725V944.88h2.835v2.845Zm0,16.991V950.584h2.835v14.132Z" transform="translate(-551.162 -944.88)" fill="#fff"/>
    <path id="Path_260" data-name="Path 260" d="M767.13,961.3V944.88h2.835v16.188q0,.98,1.058.98h.963v2.668h-1.248a4.246,4.246,0,0,1-2.578-.755A3.092,3.092,0,0,1,767.13,961.3Z" transform="translate(-746.063 -944.88)" fill="#fff"/>
    <path id="Path_261" data-name="Path 261" d="M986.46,961.3V944.88H989.3v16.188q0,.98,1.058.98h.963v2.668h-1.248a4.246,4.246,0,0,1-2.578-.755A3.092,3.092,0,0,1,986.46,961.3Z" transform="translate(-958.23 -944.88)" fill="#fff"/>
    <path id="Path_262" data-name="Path 262" d="M1208.29,947.725V944.88h2.835v2.845Zm0,16.991V950.584h2.835v14.132Z" transform="translate(-1172.816 -944.88)" fill="#fff"/>
    <path id="Path_263" data-name="Path 263" d="M1388.57,1121.166a12.063,12.063,0,0,1,.353-3.39,5.4,5.4,0,0,1,1.167-2.015,6.567,6.567,0,0,1,1.608-1.225,6.376,6.376,0,0,1,5.338,0,6.54,6.54,0,0,1,1.614,1.225,5.4,5.4,0,0,1,1.166,2.015,12.071,12.071,0,0,1,.353,3.39,12.267,12.267,0,0,1-.353,3.431,5.4,5.4,0,0,1-1.166,2.015,6.126,6.126,0,0,1-1.614,1.225,6.514,6.514,0,0,1-5.338,0,6.15,6.15,0,0,1-1.608-1.225,5.389,5.389,0,0,1-1.167-2.015A12.272,12.272,0,0,1,1388.57,1121.166Zm8.777.027a10.229,10.229,0,0,0-.156-2.165,3.838,3.838,0,0,0-.536-1.2,2.623,2.623,0,0,0-2.279-1.035,2.58,2.58,0,0,0-2.279,1.035,3.327,3.327,0,0,0-.549,1.2,10.971,10.971,0,0,0-.142,2.137,11.389,11.389,0,0,0,.142,2.185,3.2,3.2,0,0,0,.549,1.191,2.58,2.58,0,0,0,2.279,1.035,2.622,2.622,0,0,0,2.279-1.035,3.675,3.675,0,0,0,.536-1.184A10.228,10.228,0,0,0,1397.347,1121.193Z" transform="translate(-1347.209 -1108.409)" fill="#fff"/>
    <path id="Path_264" data-name="Path 264" d="M1835.14,1128.245v-14.132h2.835v1.511h.054a4.4,4.4,0,0,1,3.663-1.675,4.945,4.945,0,0,1,3.168,1.253,4.447,4.447,0,0,1,1.526,3.649v9.394h-2.835v-8.414a3.04,3.04,0,0,0-.794-2.233,2.663,2.663,0,0,0-1.974-.8,2.712,2.712,0,0,0-2.015.8,3.039,3.039,0,0,0-.793,2.233v8.414Z" transform="translate(-1779.196 -1108.409)" fill="#fff"/>
    <path id="Path_265" data-name="Path 265" d="M2243.9,1125.9l1.98-1.96a6.107,6.107,0,0,0,4.436,1.811,3.93,3.93,0,0,0,1.994-.456,1.472,1.472,0,0,0,.787-1.354q0-1.239-1.723-1.389l-2.5-.231a4.808,4.808,0,0,1-2.9-1.157,3.6,3.6,0,0,1-1.153-2.845,3.777,3.777,0,0,1,1.506-3.254,6.168,6.168,0,0,1,3.744-1.1,8.547,8.547,0,0,1,3.161.524,8.661,8.661,0,0,1,2.36,1.4l-1.75,2.069a9.507,9.507,0,0,0-1.736-.939,5.317,5.317,0,0,0-2.035-.368,2.815,2.815,0,0,0-1.885.484,1.58,1.58,0,0,0-.529,1.218,1.2,1.2,0,0,0,.394.858,2.33,2.33,0,0,0,1.465.477l2.333.163a4.14,4.14,0,0,1,3.134,1.354,4.513,4.513,0,0,1,.95,2.88,3.637,3.637,0,0,1-1.7,3.213,7.293,7.293,0,0,1-4.137,1.13A8.794,8.794,0,0,1,2243.9,1125.9Z" transform="translate(-2174.607 -1108.419)" fill="#fff"/>
  </g>
  <ellipse id="Ellipse_8" data-name="Ellipse 8" cx="2.975" cy="2.986" rx="2.975" ry="2.986" transform="translate(84.049 13.708)" fill="#1ce783"/>
</svg>
