<svg xmlns="http://www.w3.org/2000/svg" width="20" height="20" viewBox="0 0 20 20">
  <path id="bxs-smile" d="M12,22A10,10,0,1,0,2,12,10.011,10.011,0,0,0,12,22ZM15.493,9A1.493,1.493,0,1,1,14,10.493,1.494,1.494,0,0,1,15.493,9Zm-4.3,6.919a4.007,4.007,0,0,0,2.366-.233,3.962,3.962,0,0,0,1.27-.857,3.934,3.934,0,0,0,.489-.592l1.658,1.117a5.991,5.991,0,0,1-3.768,2.525A6.116,6.116,0,0,1,12,18a6.043,6.043,0,0,1-1.207-.122,5.919,5.919,0,0,1-1.127-.349,6,6,0,0,1-1.021-.554,6.078,6.078,0,0,1-.888-.733,5.853,5.853,0,0,1-.733-.889l1.658-1.117a4.006,4.006,0,0,0,1.761,1.45A4.053,4.053,0,0,0,11.192,15.919ZM8.5,9A1.5,1.5,0,1,1,7,10.5,1.5,1.5,0,0,1,8.5,9Z" transform="translate(-2 -2)" fill="#5e6287"/>
</svg>
