<svg xmlns="http://www.w3.org/2000/svg" width="24" height="24" viewBox="0 0 24 24"><defs><style>.a{fill:#fff;stroke:#707070;opacity:0;}.b,.c{fill:#5e6287;}.d,.f{fill:none;}.d{stroke:#3c4066;}.e,.g{stroke:none;}.g{fill:#3c4066;}</style></defs><g class="a"><rect class="e" width="24" height="24"/><rect class="f" x="0.5" y="0.5" width="23" height="23"/></g><path class="b" d="M21.555,8.168l-9-6a1,1,0,0,0-1.109,0l-9,6A1,1,0,0,0,2,9H2V20a2,2,0,0,0,2,2H20a2,2,0,0,0,2-2V9h0A1,1,0,0,0,21.555,8.168ZM20,12.7,12,17,4,12.7V10.3l8,4.3,8-4.3v2.4Z"/><g class="c" transform="translate(4.989 4.657)"><path class="e" d="M 7.039550304412842 10.49741649627686 L 6.802080631256104 10.36990642547607 L -0.2365395277738571 6.59041690826416 L -0.4999995231628418 6.448946952819824 L -0.4999995231628418 6.149907112121582 L -0.4999995231628418 0.8764069080352783 C -0.4999995231628418 0.1174468845129013 0.1174504682421684 -0.5000030994415283 0.8764004707336426 -0.5000030994415283 L 13.14606094360352 -0.5000030994415283 C 13.90501022338867 -0.5000030994415283 14.5224609375 0.1174468845129013 14.5224609375 0.8764069080352783 L 14.5224609375 6.149907112121582 L 14.5224609375 6.447836875915527 L 14.26043033599854 6.589646816253662 L 7.276590347290039 10.36913681030273 L 7.039550304412842 10.49741649627686 Z"/><path class="g" d="M 0.8763999938964844 -2.86102294921875e-06 C 0.3923807144165039 -2.86102294921875e-06 0 0.3923768997192383 0 0.8764066696166992 L 0 6.149907112121582 L 7.038620471954346 9.929396629333496 L 14.0224609375 6.149907112121582 L 14.0224609375 0.8764066696166992 C 14.0224609375 0.3923768997192383 13.6300802230835 -2.86102294921875e-06 13.14606094360352 -2.86102294921875e-06 L 0.8763999938964844 -2.86102294921875e-06 M 0.8763999938964844 -1.000002861022949 L 13.14606094360352 -1.000002861022949 C 14.1807107925415 -1.000002861022949 15.0224609375 -0.1582527160644531 15.0224609375 0.8764066696166992 L 15.0224609375 6.149907112121582 L 15.0224609375 6.745777130126953 L 14.49841022491455 7.029376983642578 L 7.514570236206055 10.80886650085449 L 7.040470600128174 11.06543731689453 L 6.565540313720703 10.81041717529297 L -0.4730796813964844 7.030926704406738 L -1 6.747986793518066 L -1 6.149907112121582 L -1 0.8764066696166992 C -1 -0.1582527160644531 -0.1582498550415039 -1.000002861022949 0.8763999938964844 -1.000002861022949 Z"/></g><line class="d" x2="11" transform="translate(6.5 7.5)"/><line class="d" x2="11" transform="translate(6.5 9.5)"/></svg>