<svg id="ic_up_arrow" xmlns="http://www.w3.org/2000/svg" width="20" height="20" viewBox="0 0 20 20">
  <g id="Group_2" data-name="Group 2">
    <circle id="Ellipse_1" data-name="Ellipse 1" cx="9.384" cy="9.384" r="9.384" transform="translate(0.616 0.616)" fill="#5e6287"/>
    <path id="Path_2" data-name="Path 2" d="M10,20A10,10,0,1,1,20,10,10.011,10.011,0,0,1,10,20ZM10,1.549A8.451,8.451,0,1,0,18.451,10,8.46,8.46,0,0,0,10,1.549Z" fill="#5e6287"/>
  </g>
  <path id="Path_3" data-name="Path 3" d="M149.457,184.616a.95.95,0,0,1-1.34,0l-4.077-4.077-4.077,4.077a.95.95,0,0,1-1.34-1.34l4.751-4.751a.95.95,0,0,1,1.34,0l4.751,4.751A.95.95,0,0,1,149.457,184.616Z" transform="translate(-134.033 -171.925)" fill="#fff"/>
</svg>
