<svg xmlns="http://www.w3.org/2000/svg" xmlns:xlink="http://www.w3.org/1999/xlink" width="1366" height="768" viewBox="0 0 1366 768">
  <defs>
    <clipPath id="clip-Join_or_Login_Fanspace">
      <rect width="1366" height="768"/>
    </clipPath>
  </defs>
  <g id="Join_or_Login_Fanspace" data-name="Join or Login Fanspace" clip-path="url(#clip-Join_or_Login_Fanspace)">
    <g id="img" transform="translate(859.985 209.543) rotate(17)" opacity="0.16">
      <path id="Path_89" data-name="Path 89" d="M1305.718,646.835a20.368,20.368,0,0,0,5.454,1.223v51.326c-.431.055-.863.125-1.277.213-.273.044-.529.115-.8.18a1.057,1.057,0,0,0-.18.044c-.24.054-.486.125-.726.2-.2.055-.41.126-.612.191-.317.1-.623.213-.939.338a1.739,1.739,0,0,0-.295.115c-.1.033-.191.082-.295.126-.262.1-.508.213-.759.339-.125.055-.251.115-.371.18s-.251.126-.371.191c-.147.082-.295.158-.442.24-.1.055-.213.115-.317.18-.169.1-.339.2-.508.306-.115.065-.213.136-.317.2-.317.2-.633.42-.939.644-.137.1-.273.2-.409.306-.41.306-.8.633-1.179.972-.093.082-.18.169-.273.251-.464.431-.906.884-1.327,1.349a.428.428,0,0,0-.158-.044c-.011-.011-.011-.011-.022,0-.464-.136-.928-.273-1.392-.382-.17-.044-.338-.093-.508-.137-.666-.18-1.327-.349-1.993-.508-.7-.18-1.392-.349-2.1-.508s-1.381-.328-2.086-.475c-.306-.082-.612-.147-.917-.2a3.053,3.053,0,0,0-.453-.1c-.677-.158-1.359-.295-2.036-.431-.213-.044-.421-.093-.633-.126a1.5,1.5,0,0,0-.213-.044c-.011-.011-.011-.011-.022,0-.791-.169-1.594-.317-2.391-.464-.579-.115-1.152-.213-1.731-.306-.633-.115-1.266-.224-1.91-.328-.126-.022-.24-.044-.35-.055-.852-.136-1.687-.273-2.55-.4-1.1-.158-2.184-.317-3.282-.453l-.24-.033Zm0,0a20.368,20.368,0,0,0,5.454,1.223v51.326c-.431.055-.863.125-1.277.213-.273.044-.529.115-.8.18a1.057,1.057,0,0,0-.18.044c-.24.054-.486.125-.726.2-.2.055-.41.126-.612.191-.317.1-.623.213-.939.338a1.739,1.739,0,0,0-.295.115c-.1.033-.191.082-.295.126-.262.1-.508.213-.759.339-.125.055-.251.115-.371.18s-.251.126-.371.191c-.147.082-.295.158-.442.24-.1.055-.213.115-.317.18-.169.1-.339.2-.508.306-.115.065-.213.136-.317.2-.317.2-.633.42-.939.644-.137.1-.273.2-.409.306-.41.306-.8.633-1.179.972-.093.082-.18.169-.273.251-.464.431-.906.884-1.327,1.349a.428.428,0,0,0-.158-.044c-.011-.011-.011-.011-.022,0-.464-.136-.928-.273-1.392-.382-.17-.044-.338-.093-.508-.137-.666-.18-1.327-.349-1.993-.508-.7-.18-1.392-.349-2.1-.508s-1.381-.328-2.086-.475c-.306-.082-.612-.147-.917-.2a3.053,3.053,0,0,0-.453-.1c-.677-.158-1.359-.295-2.036-.431-.213-.044-.421-.093-.633-.126a1.5,1.5,0,0,0-.213-.044c-.011-.011-.011-.011-.022,0-.791-.169-1.594-.317-2.391-.464-.579-.115-1.152-.213-1.731-.306-.633-.115-1.266-.224-1.91-.328-.126-.022-.24-.044-.35-.055-.852-.136-1.687-.273-2.55-.4-1.1-.158-2.184-.317-3.282-.453l-.24-.033Zm199.937-289.672a17.709,17.709,0,0,0-1.032-6l39.233-24.541a16.491,16.491,0,0,0,6.443,3.86v86.77a21.611,21.611,0,0,0-6.213,2.773l-43.513-50.387A17.78,17.78,0,0,0,1505.654,357.163ZM1305.718,646.835a20.368,20.368,0,0,0,5.454,1.223v51.326c-.431.055-.863.125-1.277.213-.273.044-.529.115-.8.18a1.057,1.057,0,0,0-.18.044c-.24.054-.486.125-.726.2-.2.055-.41.126-.612.191-.317.1-.623.213-.939.338a1.739,1.739,0,0,0-.295.115c-.1.033-.191.082-.295.126-.262.1-.508.213-.759.339-.125.055-.251.115-.371.18s-.251.126-.371.191c-.147.082-.295.158-.442.24-.1.055-.213.115-.317.18-.169.1-.339.2-.508.306-.115.065-.213.136-.317.2-.317.2-.633.42-.939.644-.137.1-.273.2-.409.306-.41.306-.8.633-1.179.972-.093.082-.18.169-.273.251-.464.431-.906.884-1.327,1.349a.428.428,0,0,0-.158-.044c-.011-.011-.011-.011-.022,0-.464-.136-.928-.273-1.392-.382-.17-.044-.338-.093-.508-.137-.666-.18-1.327-.349-1.993-.508-.7-.18-1.392-.349-2.1-.508s-1.381-.328-2.086-.475c-.306-.082-.612-.147-.917-.2a3.053,3.053,0,0,0-.453-.1c-.677-.158-1.359-.295-2.036-.431-.213-.044-.421-.093-.633-.126a1.5,1.5,0,0,0-.213-.044c-.011-.011-.011-.011-.022,0-.791-.169-1.594-.317-2.391-.464-.579-.115-1.152-.213-1.731-.306-.633-.115-1.266-.224-1.91-.328-.126-.022-.24-.044-.35-.055-.852-.136-1.687-.273-2.55-.4-1.1-.158-2.184-.317-3.282-.453l-.24-.033ZM1436.9,304.7l36.732,41.531a17.836,17.836,0,0,0,.535,22.527L1434.7,413.965a23.9,23.9,0,0,0-9.511-4V309.3A25.548,25.548,0,0,0,1436.9,304.7ZM1305.718,646.835a20.368,20.368,0,0,0,5.454,1.223v51.326c-.431.055-.863.125-1.277.213-.273.044-.529.115-.8.18a1.057,1.057,0,0,0-.18.044c-.24.054-.486.125-.726.2-.2.055-.41.126-.612.191-.317.1-.623.213-.939.338a1.739,1.739,0,0,0-.295.115c-.1.033-.191.082-.295.126-.262.1-.508.213-.759.339-.125.055-.251.115-.371.18s-.251.126-.371.191c-.147.082-.295.158-.442.24-.1.055-.213.115-.317.18-.169.1-.339.2-.508.306-.115.065-.213.136-.317.2-.317.2-.633.42-.939.644-.137.1-.273.2-.409.306-.41.306-.8.633-1.179.972-.093.082-.18.169-.273.251-.464.431-.906.884-1.327,1.349a.428.428,0,0,0-.158-.044c-.011-.011-.011-.011-.022,0-.464-.136-.928-.273-1.392-.382-.17-.044-.338-.093-.508-.137-.666-.18-1.327-.349-1.993-.508-.7-.18-1.392-.349-2.1-.508s-1.381-.328-2.086-.475c-.306-.082-.612-.147-.917-.2a3.053,3.053,0,0,0-.453-.1c-.677-.158-1.359-.295-2.036-.431a4.36,4.36,0,0,0-.633-.126,1.5,1.5,0,0,0-.213-.044c-.011-.011-.011-.011-.022,0-.791-.169-1.594-.317-2.391-.464-.579-.115-1.152-.213-1.731-.306-.633-.115-1.266-.224-1.91-.328-.126-.022-.24-.044-.35-.055-.852-.136-1.687-.273-2.55-.4-1.1-.158-2.184-.317-3.282-.453l-.24-.033Zm0,0a20.368,20.368,0,0,0,5.454,1.223v51.326c-.431.055-.863.125-1.277.213-.273.044-.529.115-.8.18a1.057,1.057,0,0,0-.18.044c-.24.054-.486.125-.726.2-.2.055-.41.126-.612.191-.317.1-.623.213-.939.338a1.739,1.739,0,0,0-.295.115c-.1.033-.191.082-.295.126-.262.1-.508.213-.759.339-.125.055-.251.115-.371.18s-.251.126-.371.191c-.147.082-.295.158-.442.24-.1.055-.213.115-.317.18-.169.1-.339.2-.508.306-.115.065-.213.136-.317.2-.317.2-.633.42-.939.644-.137.1-.273.2-.409.306-.41.306-.8.633-1.179.972-.093.082-.18.169-.273.251-.464.431-.906.884-1.327,1.349a.428.428,0,0,0-.158-.044c-.011-.011-.011-.011-.022,0-.464-.136-.928-.273-1.392-.382-.17-.044-.338-.093-.508-.137-.666-.18-1.327-.349-1.993-.508-.7-.18-1.392-.349-2.1-.508s-1.381-.328-2.086-.475c-.306-.082-.612-.147-.917-.2a3.053,3.053,0,0,0-.453-.1c-.677-.158-1.359-.295-2.036-.431a4.36,4.36,0,0,0-.633-.126,1.5,1.5,0,0,0-.213-.044c-.011-.011-.011-.011-.022,0-.791-.169-1.594-.317-2.391-.464-.579-.115-1.152-.213-1.731-.306-.633-.115-1.266-.224-1.91-.328-.126-.022-.24-.044-.35-.055-.852-.136-1.687-.273-2.55-.4-1.1-.158-2.184-.317-3.282-.453l-.24-.033Zm139.428-212.795a24.4,24.4,0,0,0-6.224-16.324l39.528-45.293a17.281,17.281,0,0,0,6.262,2.364l-2.866,78.389a17.885,17.885,0,0,0-13.382,25.89l-43.279,25.491V458.09A24.445,24.445,0,0,0,1445.145,434.041ZM1305.718,646.835a20.368,20.368,0,0,0,5.454,1.223v51.326c-.431.055-.863.125-1.277.213-.273.044-.529.115-.8.18a1.057,1.057,0,0,0-.18.044c-.24.054-.486.125-.726.2-.2.055-.41.126-.612.191-.317.1-.623.213-.939.338a1.739,1.739,0,0,0-.295.115c-.1.033-.191.082-.295.126-.262.1-.508.213-.759.339-.125.055-.251.115-.371.18s-.251.126-.371.191c-.147.082-.295.158-.442.24-.1.055-.213.115-.317.18-.169.1-.339.2-.508.306-.115.065-.213.136-.317.2-.317.2-.633.42-.939.644-.137.1-.273.2-.409.306-.41.306-.8.633-1.179.972-.093.082-.18.169-.273.251-.464.431-.906.884-1.327,1.349a.428.428,0,0,0-.158-.044c-.011-.011-.011-.011-.022,0-.464-.136-.928-.273-1.392-.382-.17-.044-.338-.093-.508-.137-.666-.18-1.327-.349-1.993-.508-.7-.18-1.392-.349-2.1-.508s-1.381-.328-2.086-.475c-.306-.082-.612-.147-.917-.2a3.053,3.053,0,0,0-.453-.1c-.677-.158-1.359-.295-2.036-.431a4.36,4.36,0,0,0-.633-.126,1.5,1.5,0,0,0-.213-.044c-.011-.011-.011-.011-.022,0-.791-.169-1.594-.317-2.391-.464-.579-.115-1.152-.213-1.731-.306-.633-.115-1.266-.224-1.91-.328-.126-.022-.24-.044-.35-.055-.852-.136-1.687-.273-2.55-.4-1.1-.158-2.184-.317-3.282-.453l-.24-.033Zm166.131-163.194a17.715,17.715,0,0,0,9.691,4.9v42.077a26.456,26.456,0,0,0-22.494,26.163,27.258,27.258,0,0,0,.825,6.623l-34.685,14.25V511.131ZM1305.718,646.835a20.368,20.368,0,0,0,5.454,1.223v51.326c-.431.055-.863.125-1.277.213-.273.044-.529.115-.8.18a1.057,1.057,0,0,0-.18.044c-.24.054-.486.125-.726.2-.2.055-.41.126-.612.191-.317.1-.623.213-.939.338a1.739,1.739,0,0,0-.295.115c-.1.033-.191.082-.295.126-.262.1-.508.213-.759.339-.125.055-.251.115-.371.18s-.251.126-.371.191c-.147.082-.295.158-.442.24-.1.055-.213.115-.317.18-.169.1-.339.2-.508.306-.115.065-.213.136-.317.2-.317.2-.633.42-.939.644-.137.1-.273.2-.409.306-.41.306-.8.633-1.179.972-.093.082-.18.169-.273.251-.464.431-.906.884-1.327,1.349a.428.428,0,0,0-.158-.044c-.011-.011-.011-.011-.022,0-.464-.136-.928-.273-1.392-.382-.17-.044-.338-.093-.508-.137-.666-.18-1.327-.349-1.993-.508-.7-.18-1.392-.349-2.1-.508s-1.381-.328-2.086-.475c-.306-.082-.612-.147-.917-.2a3.053,3.053,0,0,0-.453-.1c-.677-.158-1.359-.295-2.036-.431a4.36,4.36,0,0,0-.633-.126,1.5,1.5,0,0,0-.213-.044c-.011-.011-.011-.011-.022,0-.791-.169-1.594-.317-2.391-.464-.579-.115-1.152-.213-1.731-.306-.633-.115-1.266-.224-1.91-.328-.126-.022-.24-.044-.35-.055-.852-.136-1.687-.273-2.55-.4-1.1-.158-2.184-.317-3.282-.453l-.24-.033Zm205.73-84.881,38.851,6.612V638.94a28.659,28.659,0,0,0-10.788,4.662L1501.827,577.6A26.4,26.4,0,0,0,1511.447,561.954Zm-205.73,84.881a20.368,20.368,0,0,0,5.454,1.223v51.326c-.431.055-.863.125-1.277.213-.273.044-.529.115-.8.18a1.057,1.057,0,0,0-.18.044c-.24.054-.486.125-.726.2-.2.055-.41.126-.612.191-.317.1-.623.213-.939.338a1.739,1.739,0,0,0-.295.115c-.1.033-.191.082-.295.126-.262.1-.508.213-.759.339-.125.055-.251.115-.371.18s-.251.126-.371.191c-.147.082-.295.158-.442.24-.1.055-.213.115-.317.18-.169.1-.339.2-.508.306-.115.065-.213.136-.317.2-.317.2-.633.42-.939.644-.137.1-.273.2-.409.306-.41.306-.8.633-1.179.972-.093.082-.18.169-.273.251-.464.431-.906.884-1.327,1.349a.428.428,0,0,0-.158-.044c-.011-.011-.011-.011-.022,0-.464-.136-.928-.273-1.392-.382-.17-.044-.338-.093-.508-.137-.666-.18-1.327-.349-1.993-.508-.7-.18-1.392-.349-2.1-.508s-1.381-.328-2.086-.475c-.306-.082-.612-.147-.917-.2a3.053,3.053,0,0,0-.453-.1c-.677-.158-1.359-.295-2.036-.431a4.36,4.36,0,0,0-.633-.126,1.5,1.5,0,0,0-.213-.044c-.011-.011-.011-.011-.022,0-.791-.169-1.594-.317-2.391-.464-.579-.115-1.152-.213-1.731-.306-.633-.115-1.266-.224-1.91-.328-.126-.022-.24-.044-.35-.055-.852-.136-1.687-.273-2.55-.4-1.1-.158-2.184-.317-3.282-.453l-.24-.033Zm0,0a20.368,20.368,0,0,0,5.454,1.223v51.326c-.431.055-.863.125-1.277.213-.273.044-.529.115-.8.18a1.057,1.057,0,0,0-.18.044c-.24.054-.486.125-.726.2-.2.055-.41.126-.612.191-.317.1-.623.213-.939.338a1.739,1.739,0,0,0-.295.115c-.1.033-.191.082-.295.126-.262.1-.508.213-.759.339-.125.055-.251.115-.371.18s-.251.126-.371.191c-.147.082-.295.158-.442.24-.1.055-.213.115-.317.18-.169.1-.339.2-.508.306-.115.065-.213.136-.317.2-.317.2-.633.42-.939.644-.137.1-.273.2-.409.306-.41.306-.8.633-1.179.972-.093.082-.18.169-.273.251-.464.431-.906.884-1.327,1.349a.428.428,0,0,0-.158-.044c-.011-.011-.011-.011-.022,0-.464-.136-.928-.273-1.392-.382-.17-.044-.338-.093-.508-.137-.666-.18-1.327-.349-1.993-.508-.7-.18-1.392-.349-2.1-.508s-1.381-.328-2.086-.475c-.306-.082-.612-.147-.917-.2a3.053,3.053,0,0,0-.453-.1c-.677-.158-1.359-.295-2.036-.431a4.36,4.36,0,0,0-.633-.126,1.5,1.5,0,0,0-.213-.044c-.011-.011-.011-.011-.022,0-.791-.169-1.594-.317-2.391-.464-.579-.115-1.152-.213-1.731-.306-.633-.115-1.266-.224-1.91-.328-.126-.022-.24-.044-.35-.055-.852-.136-1.687-.273-2.55-.4-1.1-.158-2.184-.317-3.282-.453l-.24-.033Zm156.162-78.144a26.473,26.473,0,0,0,15.194,13.163l-13.933,54.291L1425.2,623.49V583.782Zm-156.162,78.144a20.368,20.368,0,0,0,5.454,1.223v51.326c-.431.055-.863.125-1.277.213-.273.044-.529.115-.8.18a1.057,1.057,0,0,0-.18.044c-.24.054-.486.125-.726.2-.2.055-.41.126-.612.191-.317.1-.623.213-.939.338a1.739,1.739,0,0,0-.295.115c-.1.033-.191.082-.295.126-.262.1-.508.213-.759.339-.125.055-.251.115-.371.18s-.251.126-.371.191c-.147.082-.295.158-.442.24-.1.055-.213.115-.317.18-.169.1-.339.2-.508.306-.115.065-.213.136-.317.2-.317.2-.633.42-.939.644-.137.1-.273.2-.409.306-.41.306-.8.633-1.179.972-.093.082-.18.169-.273.251-.464.431-.906.884-1.327,1.349a.428.428,0,0,0-.158-.044c-.011-.011-.011-.011-.022,0-.464-.136-.928-.273-1.392-.382-.17-.044-.338-.093-.508-.137-.666-.18-1.327-.349-1.993-.508-.7-.18-1.392-.349-2.1-.508s-1.381-.328-2.086-.475c-.306-.082-.612-.147-.917-.2a3.053,3.053,0,0,0-.453-.1c-.677-.158-1.359-.295-2.036-.431a4.36,4.36,0,0,0-.633-.126,1.5,1.5,0,0,0-.213-.044c-.011-.011-.011-.011-.022,0-.791-.169-1.594-.317-2.391-.464-.579-.115-1.152-.213-1.731-.306-.633-.115-1.266-.224-1.91-.328-.126-.022-.24-.044-.35-.055-.852-.136-1.687-.273-2.55-.4-1.1-.158-2.184-.317-3.282-.453l-.24-.033Zm0,0a20.368,20.368,0,0,0,5.454,1.223v51.326c-.431.055-.863.125-1.277.213-.273.044-.529.115-.8.18a1.057,1.057,0,0,0-.18.044c-.24.054-.486.125-.726.2-.2.055-.41.126-.612.191-.317.1-.623.213-.939.338a1.739,1.739,0,0,0-.295.115c-.1.033-.191.082-.295.126-.262.1-.508.213-.759.339-.125.055-.251.115-.371.18s-.251.126-.371.191c-.147.082-.295.158-.442.24-.1.055-.213.115-.317.18-.169.1-.339.2-.508.306-.115.065-.213.136-.317.2-.317.2-.633.42-.939.644-.137.1-.273.2-.409.306-.41.306-.8.633-1.179.972-.093.082-.18.169-.273.251-.464.431-.906.884-1.327,1.349a.428.428,0,0,0-.158-.044c-.011-.011-.011-.011-.022,0-.464-.136-.928-.273-1.392-.382-.17-.044-.338-.093-.508-.137-.666-.18-1.327-.349-1.993-.508-.7-.18-1.392-.349-2.1-.508s-1.381-.328-2.086-.475c-.306-.082-.612-.147-.917-.2a3.053,3.053,0,0,0-.453-.1c-.677-.158-1.359-.295-2.036-.431a4.36,4.36,0,0,0-.633-.126,1.5,1.5,0,0,0-.213-.044c-.011-.011-.011-.011-.022,0-.791-.169-1.594-.317-2.391-.464-.579-.115-1.152-.213-1.731-.306-.633-.115-1.266-.224-1.91-.328-.126-.022-.24-.044-.35-.055-.852-.136-1.687-.273-2.55-.4-1.1-.158-2.184-.317-3.282-.453l-.24-.033Zm79.525-30.716,76.489,25.513-3.62,14.08a16.6,16.6,0,0,0-2.512-.18,17.336,17.336,0,0,0-12.224,5l-58.806-43.06C1384.811,617.037,1385.04,616.583,1385.242,616.119Zm-52,11.64a20.267,20.267,0,0,0-3.319-11.149l7.605-7.485a25.125,25.125,0,0,0,43.819,13l58.669,42.973a17.264,17.264,0,0,0-1.889,7.9,17.457,17.457,0,0,0,29.826,12.328h.011l13.955,10.007,54.039-7.616a28.6,28.6,0,0,0,14.331,7.616v45.588l-156.194.928a29.892,29.892,0,0,0-52.833-17.367q-3.4-2.121-6.928-4.051c.011-.295.022-.59.022-.884a20.363,20.363,0,0,0-17.536-20.173V647.725A20.356,20.356,0,0,0,1333.239,627.759ZM1200.3,582.242l-6.792,6.251a29.488,29.488,0,0,0-5.127-4.662Q1194.317,582.922,1200.3,582.242Zm-78.3,18.35q11.482-4.095,23.083-7.381a29.533,29.533,0,0,0-3.986,14.512l-33.484-1.54Q1114.71,603.194,1122,600.592Zm-111.125,75,87.163-.874a16.787,16.787,0,0,0,.464,2.975L991.057,717.69a20.267,20.267,0,0,0-5.536-7.856A254.938,254.938,0,0,1,1010.87,675.6Zm-18.4,49.557c0-.644-.033-1.278-.093-1.911l108.128-40.265a20.535,20.535,0,0,0,7.043,7.436l-24.268,49.6a29.884,29.884,0,1,0-.9,55.754c-1.529,3.216-2.987,6.508-4.406,9.9a206.782,206.782,0,0,0-9.5,36.689l-30.415-5.536c.022-.273.022-.557.022-.824a20.368,20.368,0,0,0-26.932-19.278l-29.706-73.454A20.376,20.376,0,0,0,992.471,725.154Zm-53.45,156.309q.934-18.713,3.079-36.847l74.95,66.935a29.718,29.718,0,0,0-5.853,15.915l-73.749-.781C937.864,911.742,938.41,896.641,939.021,881.463Zm47.384,197.759a20.321,20.321,0,0,0-3.636,4.378h-.011l-42.28-14.091v-.011c-1.7-17.3-2.741-35.34-3.292-53.963Zm61.3,180.757a29.9,29.9,0,0,0,24.727-.622l30.192,50.327-.939,6.846a243.835,243.835,0,0,1-62.655-37.83Zm0,0a29.9,29.9,0,0,0,24.727-.622l30.192,50.327-.939,6.846a243.835,243.835,0,0,1-62.655-37.83Zm0,0a29.9,29.9,0,0,0,24.727-.622l30.192,50.327-.939,6.846a243.835,243.835,0,0,1-62.655-37.83Zm32.534-120.7a29.884,29.884,0,0,0-24.1-29.329l8.239-56.19c4.166,45,16.254,84.651,42.132,115,21.664,24.71,52.173,42.531,87.4,50.873l-27.063,41.509a20.374,20.374,0,0,0-17.624,1.223L1070.8,1161.078A29.8,29.8,0,0,0,1080.234,1139.283ZM970.4,1001.8a20.354,20.354,0,1,0,2.3-9.407l-36.034-15.008c.011-14.785.251-29.826.633-45.053l74.065.792a29.882,29.882,0,0,0,51.244,16.947q.287,28.377.011,56.737-.1,9.557.148,18.89v.169l-12.273,83.516h-.158a29.891,29.891,0,1,0,15.986,55.153l78.433,101.293a20.358,20.358,0,1,0,34.434,18.617l179.333,23.127v.1a29.586,29.586,0,0,0,4.8,16.22c-23.717,7.867-48.995,13.054-75.539,16.073-41.013,4.652-82.533,3.576-123-4.493a330.391,330.391,0,0,1-57.687-16.745l1.414-10.253-31.245-52.063a29.89,29.89,0,1,0-45.823-34.549l-49.47-12.432q-6.076-10.523-11.432-21.533c-15.817-30.383-24.754-68.813-29.433-112.239l39.38,13.131a20.09,20.09,0,0,0-.759,5.5,20.365,20.365,0,1,0,20.365-20.365,20.094,20.094,0,0,0-9,2.1l-54.154-70.08v-.011q-.237-11.089-.262-22.412L970.8,997.736A20.393,20.393,0,0,0,970.4,1001.8Zm509.739,238.526a18.528,18.528,0,0,0,2.719,1.982,241.516,241.516,0,0,1-65.69,57.244,29.039,29.039,0,0,0-3.451-7.775Zm-20.07-31.316,14.331,8.626a20.4,20.4,0,0,0,1.993,18.437l-66.144,51.211a25.731,25.731,0,0,0-2.5-2.386Zm-168.124,40.8a20.364,20.364,0,1,0,19.562-26.026,19.238,19.238,0,0,0-3.33.284l.6-10.188c.873-.273,1.731-.557,2.6-.852A160.063,160.063,0,0,0,1364.638,1183a29.83,29.83,0,0,0,8.141,1.72l8.7,93.889a29.92,29.92,0,0,0-22.412,23.329L1179.638,1278.8a20.973,20.973,0,0,0-.519-3.44Zm107.2-77.429,56.07,33.713-52.1,75.572a29.68,29.68,0,0,0-14.7-3.871q-.663,0-1.327.033l-8.637-93.245A29.754,29.754,0,0,0,1399.143,1172.385Zm10.925-55.366a238.149,238.149,0,0,0,10.652-44.283,20.333,20.333,0,0,0,17.127-14.523l34.276,3.609,24.792,34.5a29.752,29.752,0,0,0-9.418,21.767,30.079,30.079,0,0,0,.486,5.378L1403,1144.71a30.218,30.218,0,0,0-2.741-5.6A150.661,150.661,0,0,0,1410.067,1117.018Zm136.065-116.574a29.719,29.719,0,0,0-4.313-15.472l9.964-5.017q.082,26.575-1.458,50.715l-11.285-10.9A29.737,29.737,0,0,0,1546.132,1000.445Zm-120.985-78.138,66.766,60.809a29.669,29.669,0,0,0-5.514,15.86h-61.661C1425.643,972.54,1425.927,946.826,1425.147,922.306Zm88.768-6.852,36.383,6.191v7.9q1.253,22.84,1.447,44.092l-13.36,6.737h-.011a29.74,29.74,0,0,0-22.128-9.816,27.676,27.676,0,0,0-3.511.213l-11.454-42.913A20.386,20.386,0,0,0,1513.915,915.454ZM1393.89,747.511l156.408-.928v12.191l-82.626,31.66a20.365,20.365,0,1,0-19.005,27.686c.579,0,1.141-.022,1.7-.066l33.959,73.012a20.368,20.368,0,0,0-9.238,12.213l-51.277-8.08v-.011a451.131,451.131,0,0,0-8.49-63.572,172.331,172.331,0,0,0-30.023-66.788A29.88,29.88,0,0,0,1393.89,747.511Zm75.141,50.25a16.932,16.932,0,0,0-.082-1.753l81.343-31.174v45.233c-.579-.033-1.179-.055-1.764-.055a29.886,29.886,0,0,0,0,59.772c.59,0,1.19-.022,1.764-.055v46.183l-35.226-6c.033-.442.044-.884.044-1.338a20.365,20.365,0,0,0-25.573-19.687L1456,816.755A20.347,20.347,0,0,0,1469.031,797.761Zm5.367,111.153a20.353,20.353,0,0,0,20.354,20.026c.317,0,.633-.011.95-.022l11.487,43.049a29.416,29.416,0,0,0-11.569,6.874L1424.858,914.4q-.27-6.773-.677-13.4Zm-50.158,103.5q.156-3.89.295-7.774h62.125a29.873,29.873,0,0,0,48.323,19.087l14.828,14.331v.011a578.376,578.376,0,0,1-7.949,62.906,29.867,29.867,0,0,0-40.472-8.118l-26.152-36.394-36.585-3.86v-.082A20.384,20.384,0,0,0,1424.109,1033Q1424.421,1022.985,1424.24,1012.412Zm-19.447,142.507a30.122,30.122,0,0,0-.371-4.734l85.1-21.271a29.918,29.918,0,0,0,9.882,13.054l-40.98,59.466-56.42-33.932A29.676,29.676,0,0,0,1404.793,1154.919Zm99.442-9.986a29.9,29.9,0,0,0,27.391-.562,354.152,354.152,0,0,1-22.63,58.762c-1.054,1.889-2.118,3.767-3.2,5.613a20.38,20.38,0,0,0-28.663,3.942l-13.857-8.332Zm-304.413,75.993c31.8,6.464,67.148,5.318,103.171-5.252l-.6,10.269a20.348,20.348,0,0,0-11.252,18.214v.033l-114.106,25.857a20.139,20.139,0,0,0-5.263-6.088Zm-169.882,6.415a29.424,29.424,0,0,0-.442,5.127,29.809,29.809,0,0,0,13.223,24.8l-8.162,17.613c-19.583-17.263-35.351-37.06-48.531-58.582Zm17.76,32.638a29.9,29.9,0,0,0,24.727-.622l30.192,50.327-.939,6.846a243.835,243.835,0,0,1-62.655-37.83Zm0,0a29.9,29.9,0,0,0,24.727-.622l30.192,50.327-.939,6.846a243.835,243.835,0,0,1-62.655-37.83Zm-98.366-430.94,48.039,7.3a20.358,20.358,0,0,0,20.353,20.015c.557,0,1.119-.022,1.665-.065l10.21,45.495a29.826,29.826,0,0,0-8.752,5.58L943.515,838.31A20.269,20.269,0,0,0,949.334,829.039Zm87.726,13.333,30.519,5.558c-2.888,18.634-4.346,39.167-4.881,60.924a29.732,29.732,0,0,0-21.68-9.341,28.979,28.979,0,0,0-6,.611l-10.111-45.075A20.374,20.374,0,0,0,1037.06,842.372Zm-69.649-97.405a20.148,20.148,0,0,0,8.692.158l29.973,74.158a20.387,20.387,0,0,0-8.025,11.443l-47.881-7.278v-.191a20.175,20.175,0,0,0-3.079-10.766A335.39,335.39,0,0,1,967.411,744.967Zm145.325-52.254a20.373,20.373,0,0,0,18.065-3.489l26.49,27.484c-21.495,10.346-40.221,25.606-55.693,46.56a29.9,29.9,0,0,0-13.289-20.637Zm-16.6-81.381,45.413,2.08a29.9,29.9,0,0,0,47.668,18.372l25.087,21.653a20.353,20.353,0,0,0,13.054,32.9v13.321c-23.487,1.414-45.146,6.077-64.626,14.545l-27.981-29.034a20.367,20.367,0,1,0-36.378-16.106l-82.342.813A266.2,266.2,0,0,1,1096.139,611.331Zm134.055,34.483a20.275,20.275,0,0,0-11.749,3.734L1193.369,627.9a29.871,29.871,0,0,0,3.467-34.772l12.857-11.842h.011a363.17,363.17,0,0,1,82.058,2.162l11.061,26.6a20.383,20.383,0,0,0-2.085,34.084L1267.7,700.263q-5.061-.508-10.144-.737-12.562-.6-24.53-.147V686.336a20.359,20.359,0,0,0-2.828-40.522Zm110.334-52.56a24.549,24.549,0,0,0-2.817,7.753l-11.536,11.329a20.252,20.252,0,0,0-13.3-4.946,19.527,19.527,0,0,0-4.788.579l-9.806-23.58A414.77,414.77,0,0,1,1340.528,593.254Zm-34.81,53.581a20.368,20.368,0,0,0,5.454,1.223v51.326c-.431.055-.863.125-1.277.213-.273.044-.529.115-.8.18a1.057,1.057,0,0,0-.18.044c-.24.054-.486.125-.726.2-.2.055-.41.126-.612.191-.317.1-.623.213-.939.338a1.739,1.739,0,0,0-.295.115c-.1.033-.191.082-.295.126-.262.1-.508.213-.759.339-.125.055-.251.115-.371.18s-.251.126-.371.191c-.147.082-.295.158-.442.24-.1.055-.213.115-.317.18-.169.1-.339.2-.508.306-.115.065-.213.136-.317.2-.317.2-.633.42-.939.644-.137.1-.273.2-.409.306-.41.306-.8.633-1.179.972-.093.082-.18.169-.273.251-.464.431-.906.884-1.327,1.349a.847.847,0,0,0-.158-.044c-.011-.011-.011-.011-.022,0-.464-.136-.928-.273-1.392-.382-.17-.044-.338-.093-.508-.137-.666-.18-1.327-.349-1.993-.508-.7-.18-1.392-.349-2.1-.508s-1.381-.328-2.086-.475c-.306-.082-.612-.147-.917-.2a3.053,3.053,0,0,0-.453-.1c-.677-.158-1.359-.295-2.036-.431-.213-.044-.421-.093-.633-.126a1.5,1.5,0,0,0-.213-.044c-.011-.011-.011-.011-.022,0-.791-.169-1.594-.317-2.391-.464-.579-.115-1.152-.213-1.731-.306-.633-.115-1.266-.224-1.91-.328-.126-.022-.24-.044-.35-.055-.852-.136-1.7-.273-2.55-.4-1.1-.158-2.184-.317-3.282-.453l-.24-.033Zm157.788,10.592,3.6-14,60.406,20.151a28.679,28.679,0,0,0,4.281,19l-48.416,6.825-12.115-8.67a17.478,17.478,0,0,0-7.753-23.307Zm-157.788-10.592a20.368,20.368,0,0,0,5.454,1.223v51.326c-.431.055-.863.125-1.277.213-.273.044-.529.115-.8.18a1.057,1.057,0,0,0-.18.044c-.24.054-.486.125-.726.2-.2.055-.41.126-.612.191-.317.1-.623.213-.939.338a1.739,1.739,0,0,0-.295.115c-.1.033-.191.082-.295.126-.262.1-.508.213-.759.339-.125.055-.251.115-.371.18s-.251.126-.371.191c-.147.082-.295.158-.442.24-.1.055-.213.115-.317.18-.169.1-.339.2-.508.306-.115.065-.213.136-.317.2-.317.2-.633.42-.939.644-.137.1-.273.2-.409.306-.41.306-.8.633-1.179.972-.093.082-.18.169-.273.251-.464.431-.906.884-1.327,1.349a.428.428,0,0,0-.158-.044c-.011-.011-.011-.011-.022,0-.464-.136-.928-.273-1.392-.382-.17-.044-.338-.093-.508-.137-.666-.18-1.327-.349-1.993-.508-.7-.18-1.392-.349-2.1-.508s-1.381-.328-2.086-.475c-.306-.082-.612-.147-.917-.2a3.053,3.053,0,0,0-.453-.1c-.677-.158-1.359-.295-2.036-.431a4.36,4.36,0,0,0-.633-.126,1.5,1.5,0,0,0-.213-.044c-.011-.011-.011-.011-.022,0-.791-.169-1.594-.317-2.391-.464-.579-.115-1.152-.213-1.731-.306-.633-.115-1.266-.224-1.91-.328-.126-.022-.24-.044-.35-.055-.852-.136-1.687-.273-2.55-.4-1.1-.158-2.184-.317-3.282-.453l-.24-.033Zm0,0a20.368,20.368,0,0,0,5.454,1.223v51.326c-.431.055-.863.125-1.277.213-.273.044-.529.115-.8.18a1.057,1.057,0,0,0-.18.044c-.24.054-.486.125-.726.2-.2.055-.41.126-.612.191-.317.1-.623.213-.939.338a1.739,1.739,0,0,0-.295.115c-.1.033-.191.082-.295.126-.262.1-.508.213-.759.339-.125.055-.251.115-.371.18s-.251.126-.371.191c-.147.082-.295.158-.442.24-.1.055-.213.115-.317.18-.169.1-.339.2-.508.306-.115.065-.213.136-.317.2-.317.2-.633.42-.939.644-.137.1-.273.2-.409.306-.41.306-.8.633-1.179.972-.093.082-.18.169-.273.251-.464.431-.906.884-1.327,1.349a.428.428,0,0,0-.158-.044c-.011-.011-.011-.011-.022,0-.464-.136-.928-.273-1.392-.382-.17-.044-.338-.093-.508-.137-.666-.18-1.327-.349-1.993-.508-.7-.18-1.392-.349-2.1-.508s-1.381-.328-2.086-.475c-.306-.082-.612-.147-.917-.2a3.053,3.053,0,0,0-.453-.1c-.677-.158-1.359-.295-2.036-.431a4.36,4.36,0,0,0-.633-.126,1.5,1.5,0,0,0-.213-.044c-.011-.011-.011-.011-.022,0-.791-.169-1.594-.317-2.391-.464-.579-.115-1.152-.213-1.731-.306-.633-.115-1.266-.224-1.91-.328-.126-.022-.24-.044-.35-.055-.852-.136-1.687-.273-2.55-.4-1.1-.158-2.184-.317-3.282-.453l-.24-.033Zm176.876-63.758a26.77,26.77,0,0,0,2.91.158,26.385,26.385,0,0,0,11.525-2.637l38.135,66.788a28.674,28.674,0,0,0-6.41,10.652l-60.247-20.1Zm-176.876,63.758a20.368,20.368,0,0,0,5.454,1.223v51.326c-.431.055-.863.125-1.277.213-.273.044-.529.115-.8.18a1.057,1.057,0,0,0-.18.044c-.24.054-.486.125-.726.2-.2.055-.41.126-.612.191-.317.1-.623.213-.939.338a1.739,1.739,0,0,0-.295.115c-.1.033-.191.082-.295.126-.262.1-.508.213-.759.339-.125.055-.251.115-.371.18s-.251.126-.371.191c-.147.082-.295.158-.442.24-.1.055-.213.115-.317.18-.169.1-.339.2-.508.306-.115.065-.213.136-.317.2-.317.2-.633.42-.939.644-.137.1-.273.2-.409.306-.41.306-.8.633-1.179.972-.093.082-.18.169-.273.251-.464.431-.906.884-1.327,1.349a.428.428,0,0,0-.158-.044c-.011-.011-.011-.011-.022,0-.464-.136-.928-.273-1.392-.382-.17-.044-.338-.093-.508-.137-.666-.18-1.327-.349-1.993-.508-.7-.18-1.392-.349-2.1-.508s-1.381-.328-2.086-.475c-.306-.082-.612-.147-.917-.2a3.053,3.053,0,0,0-.453-.1c-.677-.158-1.359-.295-2.036-.431a4.36,4.36,0,0,0-.633-.126,1.5,1.5,0,0,0-.213-.044c-.011-.011-.011-.011-.022,0-.791-.169-1.594-.317-2.391-.464-.579-.115-1.152-.213-1.731-.306-.633-.115-1.266-.224-1.91-.328-.126-.022-.24-.044-.35-.055-.852-.136-1.687-.273-2.55-.4-1.1-.158-2.184-.317-3.282-.453l-.24-.033Zm0,0a20.368,20.368,0,0,0,5.454,1.223v51.326c-.431.055-.863.125-1.277.213-.273.044-.529.115-.8.18a1.057,1.057,0,0,0-.18.044c-.24.054-.486.125-.726.2-.2.055-.41.126-.612.191-.317.1-.623.213-.939.338a1.739,1.739,0,0,0-.295.115c-.1.033-.191.082-.295.126-.262.1-.508.213-.759.339-.125.055-.251.115-.371.18s-.251.126-.371.191c-.147.082-.295.158-.442.24-.1.055-.213.115-.317.18-.169.1-.339.2-.508.306-.115.065-.213.136-.317.2-.317.2-.633.42-.939.644-.137.1-.273.2-.409.306-.41.306-.8.633-1.179.972-.093.082-.18.169-.273.251-.464.431-.906.884-1.327,1.349a.428.428,0,0,0-.158-.044c-.011-.011-.011-.011-.022,0-.464-.136-.928-.273-1.392-.382-.17-.044-.338-.093-.508-.137-.666-.18-1.327-.349-1.993-.508-.7-.18-1.392-.349-2.1-.508s-1.381-.328-2.086-.475c-.306-.082-.612-.147-.917-.2a3.053,3.053,0,0,0-.453-.1c-.677-.158-1.359-.295-2.036-.431a4.36,4.36,0,0,0-.633-.126,1.5,1.5,0,0,0-.213-.044c-.011-.011-.011-.011-.022,0-.791-.169-1.594-.317-2.391-.464-.579-.115-1.152-.213-1.731-.306-.633-.115-1.266-.224-1.91-.328-.126-.022-.24-.044-.35-.055-.852-.136-1.687-.273-2.55-.4-1.1-.158-2.184-.317-3.282-.453l-.24-.033Zm244.3-187.053c.093.033.191.066.284.093V562.833l-38.354-6.519a26.374,26.374,0,0,0-9.986-20.239Zm-244.3,187.053a20.368,20.368,0,0,0,5.454,1.223v51.326c-.431.055-.863.125-1.277.213-.273.044-.529.115-.8.18a1.057,1.057,0,0,0-.18.044c-.24.054-.486.125-.726.2-.2.055-.41.126-.612.191-.317.1-.623.213-.939.338a1.739,1.739,0,0,0-.295.115c-.1.033-.191.082-.295.126-.262.1-.508.213-.759.339-.125.055-.251.115-.371.18s-.251.126-.371.191c-.147.082-.295.158-.442.24-.1.055-.213.115-.317.18-.169.1-.339.2-.508.306-.115.065-.213.136-.317.2-.317.2-.633.42-.939.644-.137.1-.273.2-.409.306-.41.306-.8.633-1.179.972-.093.082-.18.169-.273.251-.464.431-.906.884-1.327,1.349a.428.428,0,0,0-.158-.044c-.011-.011-.011-.011-.022,0-.464-.136-.928-.273-1.392-.382-.17-.044-.338-.093-.508-.137-.666-.18-1.327-.349-1.993-.508-.7-.18-1.392-.349-2.1-.508s-1.381-.328-2.086-.475c-.306-.082-.612-.147-.917-.2a3.053,3.053,0,0,0-.453-.1c-.677-.158-1.359-.295-2.036-.431a4.36,4.36,0,0,0-.633-.126,1.5,1.5,0,0,0-.213-.044c-.011-.011-.011-.011-.022,0-.791-.169-1.594-.317-2.391-.464-.579-.115-1.152-.213-1.731-.306-.633-.115-1.266-.224-1.91-.328-.126-.022-.24-.044-.35-.055-.852-.136-1.687-.273-2.55-.4-1.1-.158-2.184-.317-3.282-.453l-.24-.033Zm196.541-175.948a18.379,18.379,0,0,0-.262-3.068l35.984-16.608a22.179,22.179,0,0,0,6.77,6.306l-47.564,75.529a26.166,26.166,0,0,0-9.985-2.659V488.544A17.878,17.878,0,0,0,1502.259,470.888ZM1305.718,646.835a20.368,20.368,0,0,0,5.454,1.223v51.326c-.431.055-.863.125-1.277.213-.273.044-.529.115-.8.18a1.057,1.057,0,0,0-.18.044c-.24.054-.486.125-.726.2-.2.055-.41.126-.612.191-.317.1-.623.213-.939.338a1.739,1.739,0,0,0-.295.115c-.1.033-.191.082-.295.126-.262.1-.508.213-.759.339-.125.055-.251.115-.371.18s-.251.126-.371.191c-.147.082-.295.158-.442.24-.1.055-.213.115-.317.18-.169.1-.339.2-.508.306-.115.065-.213.136-.317.2-.317.2-.633.42-.939.644-.137.1-.273.2-.409.306-.41.306-.8.633-1.179.972-.093.082-.18.169-.273.251-.464.431-.906.884-1.327,1.349a.428.428,0,0,0-.158-.044c-.011-.011-.011-.011-.022,0-.464-.136-.928-.273-1.392-.382-.17-.044-.338-.093-.508-.137-.666-.18-1.327-.349-1.993-.508-.7-.18-1.392-.349-2.1-.508s-1.381-.328-2.086-.475c-.306-.082-.612-.147-.917-.2a3.053,3.053,0,0,0-.453-.1c-.677-.158-1.359-.295-2.036-.431a4.36,4.36,0,0,0-.633-.126,1.5,1.5,0,0,0-.213-.044c-.011-.011-.011-.011-.022,0-.791-.169-1.594-.317-2.391-.464-.579-.115-1.152-.213-1.731-.306-.633-.115-1.266-.224-1.91-.328-.126-.022-.24-.044-.35-.055-.852-.136-1.687-.273-2.55-.4-1.1-.158-2.184-.317-3.282-.453l-.24-.033Zm0,0a20.368,20.368,0,0,0,5.454,1.223v51.326c-.431.055-.863.125-1.277.213-.273.044-.529.115-.8.18a1.057,1.057,0,0,0-.18.044c-.24.054-.486.125-.726.2-.2.055-.41.126-.612.191-.317.1-.623.213-.939.338a1.739,1.739,0,0,0-.295.115c-.1.033-.191.082-.295.126-.262.1-.508.213-.759.339-.125.055-.251.115-.371.18s-.251.126-.371.191c-.147.082-.295.158-.442.24-.1.055-.213.115-.317.18-.169.1-.339.2-.508.306-.115.065-.213.136-.317.2-.317.2-.633.42-.939.644-.137.1-.273.2-.409.306-.41.306-.8.633-1.179.972-.093.082-.18.169-.273.251-.464.431-.906.884-1.327,1.349a.428.428,0,0,0-.158-.044c-.011-.011-.011-.011-.022,0-.464-.136-.928-.273-1.392-.382-.17-.044-.338-.093-.508-.137-.666-.18-1.327-.349-1.993-.508-.7-.18-1.392-.349-2.1-.508s-1.381-.328-2.086-.475c-.306-.082-.612-.147-.917-.2a3.053,3.053,0,0,0-.453-.1c-.677-.158-1.359-.295-2.036-.431a4.36,4.36,0,0,0-.633-.126,1.5,1.5,0,0,0-.213-.044c-.011-.011-.011-.011-.022,0-.791-.169-1.594-.317-2.391-.464-.579-.115-1.152-.213-1.731-.306-.633-.115-1.266-.224-1.91-.328-.126-.022-.24-.044-.35-.055-.852-.136-1.687-.273-2.55-.4-1.1-.158-2.184-.317-3.282-.453l-.24-.033Zm184.666-271.977a17.479,17.479,0,0,0,5.651-1.834l43.743,50.644a22.083,22.083,0,0,0-4.428,22.532l-35.2,16.253a17.82,17.82,0,0,0-12.623-9.167ZM1305.718,646.835a20.368,20.368,0,0,0,5.454,1.223v51.326c-.431.055-.863.125-1.277.213-.273.044-.529.115-.8.18a1.057,1.057,0,0,0-.18.044c-.24.054-.486.125-.726.2-.2.055-.41.126-.612.191-.317.1-.623.213-.939.338a1.739,1.739,0,0,0-.295.115c-.1.033-.191.082-.295.126-.262.1-.508.213-.759.339-.125.055-.251.115-.371.18s-.251.126-.371.191c-.147.082-.295.158-.442.24-.1.055-.213.115-.317.18-.169.1-.339.2-.508.306-.115.065-.213.136-.317.2-.317.2-.633.42-.939.644-.137.1-.273.2-.409.306-.41.306-.8.633-1.179.972-.093.082-.18.169-.273.251-.464.431-.906.884-1.327,1.349a.428.428,0,0,0-.158-.044c-.011-.011-.011-.011-.022,0-.464-.136-.928-.273-1.392-.382-.17-.044-.338-.093-.508-.137-.666-.18-1.327-.349-1.993-.508-.7-.18-1.392-.349-2.1-.508s-1.381-.328-2.086-.475c-.306-.082-.612-.147-.917-.2a3.053,3.053,0,0,0-.453-.1c-.677-.158-1.359-.295-2.036-.431a4.36,4.36,0,0,0-.633-.126,1.5,1.5,0,0,0-.213-.044c-.011-.011-.011-.011-.022,0-.791-.169-1.594-.317-2.391-.464-.579-.115-1.152-.213-1.731-.306-.633-.115-1.266-.224-1.91-.328-.126-.022-.24-.044-.35-.055-.852-.136-1.687-.273-2.55-.4-1.1-.158-2.184-.317-3.282-.453l-.24-.033Zm0,0a20.368,20.368,0,0,0,5.454,1.223v51.326c-.431.055-.863.125-1.277.213-.273.044-.529.115-.8.18a1.057,1.057,0,0,0-.18.044c-.24.054-.486.125-.726.2-.2.055-.41.126-.612.191-.317.1-.623.213-.939.338a1.739,1.739,0,0,0-.295.115c-.1.033-.191.082-.295.126-.262.1-.508.213-.759.339-.125.055-.251.115-.371.18s-.251.126-.371.191c-.147.082-.295.158-.442.24-.1.055-.213.115-.317.18-.169.1-.339.2-.508.306-.115.065-.213.136-.317.2-.317.2-.633.42-.939.644-.137.1-.273.2-.409.306-.41.306-.8.633-1.179.972-.093.082-.18.169-.273.251-.464.431-.906.884-1.327,1.349a.428.428,0,0,0-.158-.044c-.011-.011-.011-.011-.022,0-.464-.136-.928-.273-1.392-.382-.17-.044-.338-.093-.508-.137-.666-.18-1.327-.349-1.993-.508-.7-.18-1.392-.349-2.1-.508s-1.381-.328-2.086-.475c-.306-.082-.612-.147-.917-.2a3.053,3.053,0,0,0-.453-.1c-.677-.158-1.359-.295-2.036-.431-.213-.044-.421-.093-.633-.126a1.5,1.5,0,0,0-.213-.044c-.011-.011-.011-.011-.022,0-.791-.169-1.594-.317-2.391-.464-.579-.115-1.152-.213-1.731-.306-.633-.115-1.266-.224-1.91-.328-.126-.022-.24-.044-.35-.055-.852-.136-1.687-.273-2.55-.4-1.1-.158-2.184-.317-3.282-.453l-.24-.033Zm142.158-363.388c0-.4-.011-.781-.033-1.179l50.938-8.288,42.858,31.513a16.489,16.489,0,0,0-1.141,16.537l-38.6,24.159h-.011a17.876,17.876,0,0,0-24.137-3.849l-36.618-41.406A25.949,25.949,0,0,0,1447.875,283.448ZM1305.718,646.835a20.368,20.368,0,0,0,5.454,1.223v51.326c-.431.055-.863.125-1.277.213-.273.044-.529.115-.8.18a1.057,1.057,0,0,0-.18.044c-.24.054-.486.125-.726.2-.2.055-.41.126-.612.191-.317.1-.623.213-.939.338a1.739,1.739,0,0,0-.295.115c-.1.033-.191.082-.295.126-.262.1-.508.213-.759.339-.125.055-.251.115-.371.18s-.251.126-.371.191c-.147.082-.295.158-.442.24-.1.055-.213.115-.317.18-.169.1-.339.2-.508.306-.115.065-.213.136-.317.2-.317.2-.633.42-.939.644-.137.1-.273.2-.409.306-.41.306-.8.633-1.179.972-.093.082-.18.169-.273.251-.464.431-.906.884-1.327,1.349a.428.428,0,0,0-.158-.044c-.011-.011-.011-.011-.022,0-.464-.136-.928-.273-1.392-.382-.17-.044-.338-.093-.508-.137-.666-.18-1.327-.349-1.993-.508-.7-.18-1.392-.349-2.1-.508s-1.381-.328-2.086-.475c-.306-.082-.612-.147-.917-.2a3.053,3.053,0,0,0-.453-.1c-.677-.158-1.359-.295-2.036-.431-.213-.044-.421-.093-.633-.126a1.5,1.5,0,0,0-.213-.044c-.011-.011-.011-.011-.022,0-.791-.169-1.594-.317-2.391-.464-.579-.115-1.152-.213-1.731-.306-.633-.115-1.266-.224-1.91-.328-.126-.022-.24-.044-.35-.055-.852-.136-1.687-.273-2.55-.4-1.1-.158-2.184-.317-3.282-.453l-.24-.033Zm140.46-405.585h83.134a20.987,20.987,0,0,1,20.987,20.987v36.776a16.641,16.641,0,0,0-4.685,2.386l-45.4-33.4-53.226,8.67a26.089,26.089,0,0,0-21.282-19.016A20.97,20.97,0,0,1,1446.177,241.25Z" transform="translate(-936.663 -241.25)" fill="#3c4066"/>
    </g>
    <g id="img-2" data-name="img" transform="translate(476.462 -1483.13)" opacity="0.08">
      <path id="Path_89-2" data-name="Path 89" d="M1305.307,848.871a30.516,30.516,0,0,1-8.171,1.832V927.6c.646.082,1.292.188,1.914.319.409.065.793.172,1.2.27a1.582,1.582,0,0,1,.27.066c.36.082.729.188,1.088.3.3.082.614.188.916.286.474.156.933.319,1.407.507a2.588,2.588,0,0,1,.442.172c.156.049.286.123.442.188.393.155.761.319,1.137.507.188.082.376.172.556.27.188.082.376.188.556.286.22.123.442.237.662.36.156.082.319.172.474.27.254.155.507.3.761.458.172.1.319.2.474.3.474.3.949.63,1.407.965.2.155.409.3.613.458.614.458,1.2.949,1.767,1.456.139.123.27.254.409.376.7.646,1.358,1.325,1.987,2.02a.643.643,0,0,1,.237-.066c.017-.016.017-.016.033,0,.7-.2,1.391-.409,2.086-.572.254-.066.507-.139.761-.2,1-.27,1.987-.523,2.985-.761,1.055-.27,2.086-.523,3.141-.761,1.039-.254,2.07-.491,3.125-.712.458-.123.916-.221,1.374-.3a4.579,4.579,0,0,1,.679-.155c1.014-.237,2.037-.442,3.051-.646.319-.065.63-.139.949-.188a2.236,2.236,0,0,1,.319-.065c.016-.016.016-.016.033,0,1.185-.253,2.388-.474,3.583-.7.867-.172,1.725-.319,2.593-.458.948-.172,1.9-.335,2.862-.491.188-.033.36-.066.524-.082,1.276-.2,2.527-.409,3.82-.6,1.644-.237,3.272-.474,4.916-.679l.36-.049Zm0,0a30.516,30.516,0,0,1-8.171,1.832V927.6c.646.082,1.292.188,1.914.319.409.065.793.172,1.2.27a1.582,1.582,0,0,1,.27.066c.36.082.729.188,1.088.3.3.082.614.188.916.286.474.156.933.319,1.407.507a2.588,2.588,0,0,1,.442.172c.156.049.286.123.442.188.393.155.761.319,1.137.507.188.082.376.172.556.27.188.082.376.188.556.286.22.123.442.237.662.36.156.082.319.172.474.27.254.155.507.3.761.458.172.1.319.2.474.3.474.3.949.63,1.407.965.2.155.409.3.613.458.614.458,1.2.949,1.767,1.456.139.123.27.254.409.376.7.646,1.358,1.325,1.987,2.02a.643.643,0,0,1,.237-.066c.017-.016.017-.016.033,0,.7-.2,1.391-.409,2.086-.572.254-.066.507-.139.761-.2,1-.27,1.987-.523,2.985-.761,1.055-.27,2.086-.523,3.141-.761,1.039-.254,2.07-.491,3.125-.712.458-.123.916-.221,1.374-.3a4.579,4.579,0,0,1,.679-.155c1.014-.237,2.037-.442,3.051-.646.319-.065.63-.139.949-.188a2.236,2.236,0,0,1,.319-.065c.016-.016.016-.016.033,0,1.185-.253,2.388-.474,3.583-.7.867-.172,1.725-.319,2.593-.458.948-.172,1.9-.335,2.862-.491.188-.033.36-.066.524-.082,1.276-.2,2.527-.409,3.82-.6,1.644-.237,3.272-.474,4.916-.679l.36-.049ZM1005.775,414.9a26.531,26.531,0,0,1,1.546-8.989l-58.776-36.766a24.705,24.705,0,0,1-9.652,5.783V504.925a32.375,32.375,0,0,1,9.308,4.155l65.189-75.486A26.638,26.638,0,0,1,1005.775,414.9Zm299.532,433.967a30.516,30.516,0,0,1-8.171,1.832V927.6c.646.082,1.292.188,1.914.319.409.065.793.172,1.2.27a1.582,1.582,0,0,1,.27.066c.36.082.729.188,1.088.3.3.082.614.188.916.286.474.156.933.319,1.407.507a2.588,2.588,0,0,1,.442.172c.156.049.286.123.442.188.393.155.761.319,1.137.507.188.082.376.172.556.27.188.082.376.188.556.286.22.123.442.237.662.36.156.082.319.172.474.27.254.155.507.3.761.458.172.1.319.2.474.3.474.3.949.63,1.407.965.2.155.409.3.613.458.614.458,1.2.949,1.767,1.456.139.123.27.254.409.376.7.646,1.358,1.325,1.987,2.02a.643.643,0,0,1,.237-.066c.017-.016.017-.016.033,0,.7-.2,1.391-.409,2.086-.572.254-.066.507-.139.761-.2,1-.27,1.987-.523,2.985-.761,1.055-.27,2.086-.523,3.141-.761,1.039-.254,2.07-.491,3.125-.712.458-.123.916-.221,1.374-.3a4.579,4.579,0,0,1,.679-.155c1.014-.237,2.037-.442,3.051-.646.319-.065.63-.139.949-.188a2.236,2.236,0,0,1,.319-.065c.016-.016.016-.016.033,0,1.185-.253,2.388-.474,3.583-.7.867-.172,1.725-.319,2.593-.458.948-.172,1.9-.335,2.862-.491.188-.033.36-.066.524-.082,1.276-.2,2.527-.409,3.82-.6,1.644-.237,3.272-.474,4.916-.679l.36-.049ZM1108.785,336.3l-55.03,62.22a26.72,26.72,0,0,1-.8,33.748L1112.073,500a35.811,35.811,0,0,1,14.249-5.987V343.2A38.274,38.274,0,0,1,1108.785,336.3Zm196.523,512.569a30.516,30.516,0,0,1-8.171,1.832V927.6c.646.082,1.292.188,1.914.319.409.065.793.172,1.2.27a1.582,1.582,0,0,1,.27.066c.36.082.729.188,1.088.3.3.082.614.188.916.286.474.156.933.319,1.407.507a2.588,2.588,0,0,1,.442.172c.156.049.286.123.442.188.393.155.761.319,1.137.507.188.082.376.172.556.27.188.082.376.188.556.286.22.123.442.237.662.36.156.082.319.172.474.27.254.155.507.3.761.458.172.1.319.2.474.3.474.3.949.63,1.407.965.2.155.409.3.613.458.614.458,1.2.949,1.767,1.456.139.123.27.254.409.376.7.646,1.358,1.325,1.987,2.02a.643.643,0,0,1,.237-.066c.017-.016.017-.016.033,0,.7-.2,1.391-.409,2.086-.572.254-.066.507-.139.761-.2,1-.27,1.987-.523,2.985-.761,1.055-.27,2.086-.523,3.141-.761,1.039-.254,2.07-.491,3.125-.712.458-.123.916-.221,1.374-.3a4.579,4.579,0,0,1,.679-.155c1.014-.237,2.037-.442,3.051-.646a6.529,6.529,0,0,1,.949-.188,2.236,2.236,0,0,1,.319-.065c.016-.016.016-.016.033,0,1.185-.253,2.388-.474,3.583-.7.867-.172,1.725-.319,2.593-.458.948-.172,1.9-.335,2.862-.491.188-.033.36-.066.524-.082,1.276-.2,2.527-.409,3.82-.6,1.644-.237,3.272-.474,4.916-.679l.36-.049Zm0,0a30.516,30.516,0,0,1-8.171,1.832V927.6c.646.082,1.292.188,1.914.319.409.065.793.172,1.2.27a1.582,1.582,0,0,1,.27.066c.36.082.729.188,1.088.3.3.082.614.188.916.286.474.156.933.319,1.407.507a2.588,2.588,0,0,1,.442.172c.156.049.286.123.442.188.393.155.761.319,1.137.507.188.082.376.172.556.27.188.082.376.188.556.286.22.123.442.237.662.36.156.082.319.172.474.27.254.155.507.3.761.458.172.1.319.2.474.3.474.3.949.63,1.407.965.2.155.409.3.613.458.614.458,1.2.949,1.767,1.456.139.123.27.254.409.376.7.646,1.358,1.325,1.987,2.02a.643.643,0,0,1,.237-.066c.017-.016.017-.016.033,0,.7-.2,1.391-.409,2.086-.572.254-.066.507-.139.761-.2,1-.27,1.987-.523,2.985-.761,1.055-.27,2.086-.523,3.141-.761,1.039-.254,2.07-.491,3.125-.712.458-.123.916-.221,1.374-.3a4.579,4.579,0,0,1,.679-.155c1.014-.237,2.037-.442,3.051-.646a6.529,6.529,0,0,1,.949-.188,2.236,2.236,0,0,1,.319-.065c.016-.016.016-.016.033,0,1.185-.253,2.388-.474,3.583-.7.867-.172,1.725-.319,2.593-.458.948-.172,1.9-.335,2.862-.491.188-.033.36-.066.524-.082,1.276-.2,2.527-.409,3.82-.6,1.644-.237,3.272-.474,4.916-.679l.36-.049ZM1096.426,530.076a36.551,36.551,0,0,1,9.325-24.456l-59.218-67.855a25.888,25.888,0,0,1-9.382,3.542l4.294,117.438a26.794,26.794,0,0,1,20.047,38.786l64.837,38.189V566.105A36.622,36.622,0,0,1,1096.426,530.076Zm208.882,318.795a30.516,30.516,0,0,1-8.171,1.832V927.6c.646.082,1.292.188,1.914.319.409.065.793.172,1.2.27a1.582,1.582,0,0,1,.27.066c.36.082.729.188,1.088.3.3.082.614.188.916.286.474.156.933.319,1.407.507a2.588,2.588,0,0,1,.442.172c.156.049.286.123.442.188.393.155.761.319,1.137.507.188.082.376.172.556.27.188.082.376.188.556.286.22.123.442.237.662.36.156.082.319.172.474.27.254.155.507.3.761.458.172.1.319.2.474.3.474.3.949.63,1.407.965.2.155.409.3.613.458.614.458,1.2.949,1.767,1.456.139.123.27.254.409.376.7.646,1.358,1.325,1.987,2.02a.643.643,0,0,1,.237-.066c.017-.016.017-.016.033,0,.7-.2,1.391-.409,2.086-.572.254-.066.507-.139.761-.2,1-.27,1.987-.523,2.985-.761,1.055-.27,2.086-.523,3.141-.761,1.039-.254,2.07-.491,3.125-.712.458-.123.916-.221,1.374-.3a4.579,4.579,0,0,1,.679-.155c1.014-.237,2.037-.442,3.051-.646a6.529,6.529,0,0,1,.949-.188,2.236,2.236,0,0,1,.319-.065c.016-.016.016-.016.033,0,1.185-.253,2.388-.474,3.583-.7.867-.172,1.725-.319,2.593-.458.948-.172,1.9-.335,2.862-.491.188-.033.36-.066.524-.082,1.276-.2,2.527-.409,3.82-.6,1.644-.237,3.272-.474,4.916-.679l.36-.049ZM1056.421,604.384a26.539,26.539,0,0,1-14.518,7.345v63.038a39.635,39.635,0,0,1,33.7,39.195,40.835,40.835,0,0,1-1.235,9.922l51.963,21.348V645.567Zm248.886,244.486a30.516,30.516,0,0,1-8.171,1.832V927.6c.646.082,1.292.188,1.914.319.409.065.793.172,1.2.27a1.582,1.582,0,0,1,.27.066c.36.082.729.188,1.088.3.3.082.614.188.916.286.474.156.933.319,1.407.507a2.588,2.588,0,0,1,.442.172c.156.049.286.123.442.188.393.155.761.319,1.137.507.188.082.376.172.556.27.188.082.376.188.556.286.22.123.442.237.662.36.156.082.319.172.474.27.254.155.507.3.761.458.172.1.319.2.474.3.474.3.949.63,1.407.965.2.155.409.3.613.458.614.458,1.2.949,1.767,1.456.139.123.27.254.409.376.7.646,1.358,1.325,1.987,2.02a.643.643,0,0,1,.237-.066c.017-.016.017-.016.033,0,.7-.2,1.391-.409,2.086-.572.254-.066.507-.139.761-.2,1-.27,1.987-.523,2.985-.761,1.055-.27,2.086-.523,3.141-.761,1.039-.254,2.07-.491,3.125-.712.458-.123.916-.221,1.374-.3a4.579,4.579,0,0,1,.679-.155c1.014-.237,2.037-.442,3.051-.646a6.529,6.529,0,0,1,.949-.188,2.236,2.236,0,0,1,.319-.065c.016-.016.016-.016.033,0,1.185-.253,2.388-.474,3.583-.7.867-.172,1.725-.319,2.593-.458.948-.172,1.9-.335,2.862-.491.188-.033.36-.066.524-.082,1.276-.2,2.527-.409,3.82-.6,1.644-.237,3.272-.474,4.916-.679l.36-.049ZM997.1,721.707l-58.2,9.905V837.043a42.935,42.935,0,0,1,16.162,6.985l56.453-98.887A39.552,39.552,0,0,1,997.1,721.707Zm308.21,127.163a30.516,30.516,0,0,1-8.171,1.832V927.6c.646.082,1.292.188,1.914.319.409.065.793.172,1.2.27a1.582,1.582,0,0,1,.27.066c.36.082.729.188,1.088.3.3.082.614.188.916.286.474.156.933.319,1.407.507a2.588,2.588,0,0,1,.442.172c.156.049.286.123.442.188.393.155.761.319,1.137.507.188.082.376.172.556.27.188.082.376.188.556.286.22.123.442.237.662.36.156.082.319.172.474.27.254.155.507.3.761.458.172.1.319.2.474.3.474.3.949.63,1.407.965.2.155.409.3.613.458.614.458,1.2.949,1.767,1.456.139.123.27.254.409.376.7.646,1.358,1.325,1.987,2.02a.643.643,0,0,1,.237-.066c.017-.016.017-.016.033,0,.7-.2,1.391-.409,2.086-.572.254-.066.507-.139.761-.2,1-.27,1.987-.523,2.985-.761,1.055-.27,2.086-.523,3.141-.761,1.039-.254,2.07-.491,3.125-.712.458-.123.916-.221,1.374-.3a4.579,4.579,0,0,1,.679-.155c1.014-.237,2.037-.442,3.051-.646a6.529,6.529,0,0,1,.949-.188,2.236,2.236,0,0,1,.319-.065c.016-.016.016-.016.033,0,1.185-.253,2.388-.474,3.583-.7.867-.172,1.725-.319,2.593-.458.948-.172,1.9-.335,2.862-.491.188-.033.36-.066.524-.082,1.276-.2,2.527-.409,3.82-.6,1.644-.237,3.272-.474,4.916-.679l.36-.049Zm0,0a30.516,30.516,0,0,1-8.171,1.832V927.6c.646.082,1.292.188,1.914.319.409.065.793.172,1.2.27a1.582,1.582,0,0,1,.27.066c.36.082.729.188,1.088.3.3.082.614.188.916.286.474.156.933.319,1.407.507a2.588,2.588,0,0,1,.442.172c.156.049.286.123.442.188.393.155.761.319,1.137.507.188.082.376.172.556.27.188.082.376.188.556.286.22.123.442.237.662.36.156.082.319.172.474.27.254.155.507.3.761.458.172.1.319.2.474.3.474.3.949.63,1.407.965.2.155.409.3.613.458.614.458,1.2.949,1.767,1.456.139.123.27.254.409.376.7.646,1.358,1.325,1.987,2.02a.643.643,0,0,1,.237-.066c.017-.016.017-.016.033,0,.7-.2,1.391-.409,2.086-.572.254-.066.507-.139.761-.2,1-.27,1.987-.523,2.985-.761,1.055-.27,2.086-.523,3.141-.761,1.039-.254,2.07-.491,3.125-.712.458-.123.916-.221,1.374-.3a4.579,4.579,0,0,1,.679-.155c1.014-.237,2.037-.442,3.051-.646a6.529,6.529,0,0,1,.949-.188,2.236,2.236,0,0,1,.319-.065c.016-.016.016-.016.033,0,1.185-.253,2.388-.474,3.583-.7.867-.172,1.725-.319,2.593-.458.948-.172,1.9-.335,2.862-.491.188-.033.36-.066.524-.082,1.276-.2,2.527-.409,3.82-.6,1.644-.237,3.272-.474,4.916-.679l.36-.049ZM1071.356,731.8a39.661,39.661,0,0,1-22.763,19.72l20.874,81.334,56.846-18.959V754.408Zm233.951,117.07a30.516,30.516,0,0,1-8.171,1.832V927.6c.646.082,1.292.188,1.914.319.409.065.793.172,1.2.27a1.582,1.582,0,0,1,.27.066c.36.082.729.188,1.088.3.3.082.614.188.916.286.474.156.933.319,1.407.507a2.588,2.588,0,0,1,.442.172c.156.049.286.123.442.188.393.155.761.319,1.137.507.188.082.376.172.556.27.188.082.376.188.556.286.22.123.442.237.662.36.156.082.319.172.474.27.254.155.507.3.761.458.172.1.319.2.474.3.474.3.949.63,1.407.965.2.155.409.3.613.458.614.458,1.2.949,1.767,1.456.139.123.27.254.409.376.7.646,1.358,1.325,1.987,2.02a.643.643,0,0,1,.237-.066c.017-.016.017-.016.033,0,.7-.2,1.391-.409,2.086-.572.254-.066.507-.139.761-.2,1-.27,1.987-.523,2.985-.761,1.055-.27,2.086-.523,3.141-.761,1.039-.254,2.07-.491,3.125-.712.458-.123.916-.221,1.374-.3a4.579,4.579,0,0,1,.679-.155c1.014-.237,2.037-.442,3.051-.646a6.529,6.529,0,0,1,.949-.188,2.236,2.236,0,0,1,.319-.065c.016-.016.016-.016.033,0,1.185-.253,2.388-.474,3.583-.7.867-.172,1.725-.319,2.593-.458.948-.172,1.9-.335,2.862-.491.188-.033.36-.066.524-.082,1.276-.2,2.527-.409,3.82-.6,1.644-.237,3.272-.474,4.916-.679l.36-.049Zm0,0a30.516,30.516,0,0,1-8.171,1.832V927.6c.646.082,1.292.188,1.914.319.409.065.793.172,1.2.27a1.582,1.582,0,0,1,.27.066c.36.082.729.188,1.088.3.3.082.614.188.916.286.474.156.933.319,1.407.507a2.588,2.588,0,0,1,.442.172c.156.049.286.123.442.188.393.155.761.319,1.137.507.188.082.376.172.556.27.188.082.376.188.556.286.22.123.442.237.662.36.156.082.319.172.474.27.254.155.507.3.761.458.172.1.319.2.474.3.474.3.949.63,1.407.965.2.155.409.3.613.458.614.458,1.2.949,1.767,1.456.139.123.27.254.409.376.7.646,1.358,1.325,1.987,2.02a.643.643,0,0,1,.237-.066c.017-.016.017-.016.033,0,.7-.2,1.391-.409,2.086-.572.254-.066.507-.139.761-.2,1-.27,1.987-.523,2.985-.761,1.055-.27,2.086-.523,3.141-.761,1.039-.254,2.07-.491,3.125-.712.458-.123.916-.221,1.374-.3a4.579,4.579,0,0,1,.679-.155c1.014-.237,2.037-.442,3.051-.646a6.529,6.529,0,0,1,.949-.188,2.236,2.236,0,0,1,.319-.065c.016-.016.016-.016.033,0,1.185-.253,2.388-.474,3.583-.7.867-.172,1.725-.319,2.593-.458.948-.172,1.9-.335,2.862-.491.188-.033.36-.066.524-.082,1.276-.2,2.527-.409,3.82-.6,1.644-.237,3.272-.474,4.916-.679l.36-.049Zm-119.139-46.017-114.591,38.222L1077,862.17a24.868,24.868,0,0,1,3.763-.27,25.972,25.972,0,0,1,18.313,7.492l88.1-64.51C1186.815,804.228,1186.471,803.549,1186.169,802.854Zm77.907,17.438a30.363,30.363,0,0,1,4.973-16.7l-11.394-11.214a37.641,37.641,0,0,1-65.646,19.483l-87.894,64.379a25.863,25.863,0,0,1,2.83,11.835,26.153,26.153,0,0,1-44.683,18.469h-.017l-20.906,14.992-80.958-11.41a42.852,42.852,0,0,1-21.47,11.41v68.3l234,1.39a44.783,44.783,0,0,1,79.151-26.018q5.092-3.177,10.379-6.069c-.016-.442-.032-.883-.032-1.325a30.507,30.507,0,0,1,26.271-30.222V850.2A30.5,30.5,0,0,1,1264.076,820.292Zm199.165-68.19,10.175,9.365a44.176,44.176,0,0,1,7.68-6.985Q1472.2,753.12,1463.241,752.1Zm117.307,27.49q-17.2-6.134-34.582-11.058a44.245,44.245,0,0,1,5.971,21.741l50.163-2.307Q1591.463,783.49,1580.548,779.592Zm166.48,112.367-130.582-1.309a25.161,25.161,0,0,1-.7,4.458l160.96,59.913a30.362,30.362,0,0,1,8.293-11.77A381.93,381.93,0,0,0,1747.028,891.959Zm27.564,74.243c0-.965.05-1.914.139-2.863l-161.99-60.322a30.765,30.765,0,0,1-10.552,11.14l36.357,74.3a44.77,44.77,0,1,1,1.341,83.527c2.291,4.818,4.475,9.75,6.6,14.837,6.126,16.481,10.772,34.933,14.232,54.964l45.566-8.294c-.032-.409-.032-.834-.032-1.235a30.514,30.514,0,0,1,40.348-28.881l44.5-110.044A30.526,30.526,0,0,1,1774.592,966.2Zm80.075,234.172q-1.4-28.034-4.613-55.2L1737.77,1245.45a44.52,44.52,0,0,1,8.768,23.843l110.486-1.17C1856.4,1245.736,1855.583,1223.112,1854.667,1200.374Zm-70.988,296.269a30.442,30.442,0,0,1,5.448,6.559h.016l63.341-21.11v-.016c2.544-25.912,4.106-52.944,4.932-80.844Zm-91.828,270.8a44.8,44.8,0,0,1-37.044-.932l-45.231,75.4,1.406,10.257c36.561-15.385,67.447-34.541,93.865-56.674Zm0,0a44.8,44.8,0,0,1-37.044-.932l-45.231,75.4,1.406,10.257c36.561-15.385,67.447-34.541,93.865-56.674Zm0,0a44.8,44.8,0,0,1-37.044-.932l-45.231,75.4,1.406,10.257c36.561-15.385,67.447-34.541,93.865-56.674Zm-48.74-180.819a44.771,44.771,0,0,1,36.1-43.939l-12.343-84.181c-6.241,67.413-24.35,126.819-63.119,172.288-32.456,37.02-78.161,63.717-130.942,76.215l40.545,62.187a30.522,30.522,0,0,1,26.4,1.832l117.487-151.75A44.642,44.642,0,0,1,1643.111,1586.623Zm164.551-205.962a30.493,30.493,0,1,1-3.444-14.093l53.983-22.484c-.017-22.149-.376-44.683-.949-67.5l-110.959,1.186a44.767,44.767,0,0,1-76.771,25.388q-.429,42.512-.016,85,.147,14.318-.221,28.3v.253l18.387,125.118h.237a44.781,44.781,0,1,1-23.948,82.627l-117.5,151.75a30.5,30.5,0,1,1-51.586,27.891l-268.664,34.648v.155a44.324,44.324,0,0,1-7.19,24.3c35.531,11.786,73.4,19.557,113.168,24.08,61.442,6.969,123.646,5.357,184.271-6.732a494.954,494.954,0,0,0,86.422-25.086l-2.118-15.361,46.81-78a44.779,44.779,0,1,1,68.648-51.759l74.113-18.624q9.1-15.765,17.127-32.259c23.7-45.518,37.085-103.091,44.094-168.149l-59,19.671a30.1,30.1,0,0,1,1.137,8.245,30.509,30.509,0,1,1-30.509-30.509,30.1,30.1,0,0,1,13.48,3.141l81.13-104.989v-.016q.356-16.612.393-33.576l-51.128,21.282A30.55,30.55,0,0,1,1807.661,1380.661ZM1044.005,1738a27.759,27.759,0,0,1-4.073,2.969,361.825,361.825,0,0,0,98.412,85.76,43.511,43.511,0,0,1,5.17-11.647Zm30.067-46.916-21.47,12.923a30.566,30.566,0,0,1-2.985,27.622l99.092,76.721a38.564,38.564,0,0,1,3.746-3.574Zm251.872,61.124a30.509,30.509,0,1,1-29.306-38.99,28.823,28.823,0,0,1,4.99.425l-.9-15.263c-1.308-.409-2.593-.834-3.9-1.276a239.8,239.8,0,0,1-79.788-44.994,44.69,44.69,0,0,1-12.2,2.576L1191.8,1795.349a44.824,44.824,0,0,1,33.576,34.95l268.812-34.663a31.423,31.423,0,0,1,.777-5.154Zm-160.6-116-84,50.507,78.046,113.217a44.465,44.465,0,0,1,22.027-5.8q.994,0,1.987.049l12.94-139.694A44.575,44.575,0,0,1,1165.344,1636.214Zm-16.367-82.946a356.783,356.783,0,0,1-15.958-66.342,30.461,30.461,0,0,1-25.658-21.757l-51.349,5.407-37.142,51.693a44.574,44.574,0,0,1,14.11,32.611,45.064,45.064,0,0,1-.728,8.057l127.31,31.818a45.284,45.284,0,0,1,4.106-8.392A225.724,225.724,0,0,1,1148.978,1553.268ZM945.134,1378.624a44.521,44.521,0,0,1,6.462-23.18l-14.927-7.517q-.122,39.813,2.184,75.977l16.907-16.334A44.551,44.551,0,0,1,945.134,1378.624Zm181.252-117.061-100.024,91.1a44.447,44.447,0,0,1,8.261,23.761H1127C1125.642,1336.82,1125.217,1298.3,1126.386,1261.563ZM993.4,1251.3l-54.507,9.275v11.835q-1.877,34.218-2.167,66.056l20.014,10.093h.016a44.555,44.555,0,0,1,33.15-14.706,41.461,41.461,0,0,1,5.259.319l17.16-64.289A30.54,30.54,0,0,1,993.4,1251.3Zm179.813-251.6-234.32-1.391v18.264L1062.678,1064a30.51,30.51,0,1,1,28.472,41.477c-.867,0-1.71-.033-2.544-.1l-50.875,109.381a30.514,30.514,0,0,1,13.839,18.3l76.82-12.105v-.016c2.339-33.919,6.4-65.9,12.719-95.239,7.836-36.259,22.943-70.546,44.978-100.057A44.764,44.764,0,0,1,1173.213,999.7Zm-112.571,75.282a25.352,25.352,0,0,1,.123-2.625l-121.863-46.7v67.765c.867-.049,1.767-.082,2.642-.082a44.773,44.773,0,0,1,0,89.547c-.884,0-1.783-.033-2.642-.082v69.188L991.674,1243c-.049-.662-.066-1.325-.066-2a30.51,30.51,0,0,1,38.311-29.494l50.246-108.064A30.483,30.483,0,0,1,1060.642,1074.978ZM1052.6,1241.5a30.491,30.491,0,0,1-30.492,30c-.474,0-.949-.016-1.423-.033l-17.209,64.493a44.07,44.07,0,0,1,17.332,10.3l106.011-96.548q.405-10.146,1.014-20.08Zm75.143,155.054q-.233-5.828-.442-11.647H1034.23a44.754,44.754,0,0,1-72.394,28.595l-22.215,21.47v.016a866.451,866.451,0,0,0,11.909,94.242,44.745,44.745,0,0,1,60.633-12.162l39.179-54.523,54.809-5.783v-.123a30.538,30.538,0,0,1,21.79-29.241Q1127.474,1412.392,1127.744,1396.553Zm29.134,213.495a45.108,45.108,0,0,1,.556-7.091l-127.5-31.866a44.823,44.823,0,0,1-14.8,19.557l61.393,89.088,84.524-50.834A44.457,44.457,0,0,1,1156.879,1610.048Zm-148.977-14.96a44.8,44.8,0,0,1-41.036-.842,530.56,530.56,0,0,0,33.9,88.033c1.578,2.83,3.174,5.644,4.8,8.409a30.533,30.533,0,0,1,42.941,5.905l20.759-12.482Zm456.05,113.847c-47.636,9.684-100.6,7.966-154.563-7.868l.9,15.385a30.483,30.483,0,0,1,16.858,27.286v.049l170.946,38.737a30.173,30.173,0,0,1,7.885-9.12Zm254.506,9.61a44.094,44.094,0,0,1,.662,7.68,44.659,44.659,0,0,1-19.81,37.158l12.228,26.386c29.339-25.863,52.961-55.521,72.706-87.764Zm-26.607,48.9a44.8,44.8,0,0,1-37.044-.932l-45.231,75.4,1.406,10.257c36.561-15.385,67.447-34.541,93.865-56.674Zm0,0a44.8,44.8,0,0,1-37.044-.932l-45.231,75.4,1.406,10.257c36.561-15.385,67.447-34.541,93.865-56.674Zm147.365-645.6-71.969,10.936a30.5,30.5,0,0,1-30.492,29.985c-.834,0-1.677-.033-2.494-.1l-15.3,68.158a44.682,44.682,0,0,1,13.112,8.359l115.859-103.451A30.366,30.366,0,0,1,1839.217,1121.837Zm-131.425,19.974-45.722,8.327c4.327,27.916,6.511,58.678,7.313,91.272a44.542,44.542,0,0,1,32.479-13.995,43.411,43.411,0,0,1,8.99.916L1726,1160.8A30.522,30.522,0,0,1,1707.792,1141.811Zm104.343-145.926a30.187,30.187,0,0,1-13.022.237l-44.9,111.1a30.543,30.543,0,0,1,12.023,17.144l71.733-10.9v-.286a30.224,30.224,0,0,1,4.613-16.13C1835.692,1061.768,1825.8,1027.931,1812.135,995.885ZM1594.419,917.6a30.522,30.522,0,0,1-27.064-5.226l-39.686,41.174c32.2,15.5,60.257,38.361,83.436,69.753a44.793,44.793,0,0,1,19.909-30.918Zm24.865-121.92L1551.25,798.8a44.792,44.792,0,0,1-71.414,27.523l-37.584,32.439a30.492,30.492,0,0,1-19.557,49.288V928c35.187,2.119,67.635,9.1,96.818,21.79l41.919-43.5a30.512,30.512,0,1,1,54.5-24.129l123.359,1.219A398.8,398.8,0,0,0,1619.284,795.681Zm-200.833,51.66a30.375,30.375,0,0,1,17.6,5.595L1473.62,820.5a44.751,44.751,0,0,1-5.194-52.094l-19.261-17.741h-.017a544.077,544.077,0,0,0-122.934,3.239l-16.571,39.849a30.537,30.537,0,0,1,3.124,51.063l49.5,84.1q7.582-.761,15.2-1.1,18.82-.9,36.75-.221v-19.54a30.5,30.5,0,0,1,4.237-60.707ZM1253.157,768.6a36.784,36.784,0,0,1,4.22,11.614l17.283,16.972a30.339,30.339,0,0,1,19.925-7.41,29.257,29.257,0,0,1,7.173.867l14.69-35.326A621.4,621.4,0,0,0,1253.157,768.6Zm52.151,80.271a30.516,30.516,0,0,1-8.171,1.832V927.6c.646.082,1.292.188,1.914.319.409.065.793.172,1.2.27a1.582,1.582,0,0,1,.27.066c.36.082.729.188,1.088.3.3.082.614.188.916.286.474.156.933.319,1.407.507a2.588,2.588,0,0,1,.442.172c.156.049.286.123.442.188.393.155.761.319,1.137.507.188.082.376.172.556.27.188.082.376.188.556.286.22.123.442.237.662.36.156.082.319.172.474.27.254.155.507.3.761.458.172.1.319.2.474.3.474.3.949.63,1.407.965.2.155.409.3.613.458.614.458,1.2.949,1.767,1.456.139.123.27.254.409.376.7.646,1.358,1.325,1.987,2.02a1.276,1.276,0,0,1,.237-.066c.017-.016.017-.016.033,0,.7-.2,1.391-.409,2.086-.572.254-.066.507-.139.761-.2,1-.27,1.987-.523,2.985-.761,1.055-.27,2.086-.523,3.141-.761,1.039-.254,2.07-.491,3.125-.712.458-.123.916-.221,1.374-.3a4.579,4.579,0,0,1,.679-.155c1.014-.237,2.037-.442,3.051-.646.319-.065.63-.139.949-.188a2.236,2.236,0,0,1,.319-.065c.016-.016.016-.016.033,0,1.185-.253,2.388-.474,3.583-.7.867-.172,1.725-.319,2.593-.458.948-.172,1.9-.335,2.862-.491.188-.033.36-.066.524-.082,1.276-.2,2.544-.409,3.82-.6,1.644-.237,3.272-.474,4.916-.679l.36-.049Zm-236.388,15.868-5.39-20.98-90.5,30.19a42.965,42.965,0,0,1-6.413,28.472l72.534,10.224,18.15-12.989a26.184,26.184,0,0,1,11.615-34.917Zm236.388-15.868a30.516,30.516,0,0,1-8.171,1.832V927.6c.646.082,1.292.188,1.914.319.409.065.793.172,1.2.27a1.582,1.582,0,0,1,.27.066c.36.082.729.188,1.088.3.3.082.614.188.916.286.474.156.933.319,1.407.507a2.588,2.588,0,0,1,.442.172c.156.049.286.123.442.188.393.155.761.319,1.137.507.188.082.376.172.556.27.188.082.376.188.556.286.22.123.442.237.662.36.156.082.319.172.474.27.254.155.507.3.761.458.172.1.319.2.474.3.474.3.949.63,1.407.965.2.155.409.3.613.458.614.458,1.2.949,1.767,1.456.139.123.27.254.409.376.7.646,1.358,1.325,1.987,2.02a.643.643,0,0,1,.237-.066c.017-.016.017-.016.033,0,.7-.2,1.391-.409,2.086-.572.254-.066.507-.139.761-.2,1-.27,1.987-.523,2.985-.761,1.055-.27,2.086-.523,3.141-.761,1.039-.254,2.07-.491,3.125-.712.458-.123.916-.221,1.374-.3a4.579,4.579,0,0,1,.679-.155c1.014-.237,2.037-.442,3.051-.646a6.529,6.529,0,0,1,.949-.188,2.236,2.236,0,0,1,.319-.065c.016-.016.016-.016.033,0,1.185-.253,2.388-.474,3.583-.7.867-.172,1.725-.319,2.593-.458.948-.172,1.9-.335,2.862-.491.188-.033.36-.066.524-.082,1.276-.2,2.527-.409,3.82-.6,1.644-.237,3.272-.474,4.916-.679l.36-.049Zm0,0a30.516,30.516,0,0,1-8.171,1.832V927.6c.646.082,1.292.188,1.914.319.409.065.793.172,1.2.27a1.582,1.582,0,0,1,.27.066c.36.082.729.188,1.088.3.3.082.614.188.916.286.474.156.933.319,1.407.507a2.588,2.588,0,0,1,.442.172c.156.049.286.123.442.188.393.155.761.319,1.137.507.188.082.376.172.556.27.188.082.376.188.556.286.22.123.442.237.662.36.156.082.319.172.474.27.254.155.507.3.761.458.172.1.319.2.474.3.474.3.949.63,1.407.965.2.155.409.3.613.458.614.458,1.2.949,1.767,1.456.139.123.27.254.409.376.7.646,1.358,1.325,1.987,2.02a.643.643,0,0,1,.237-.066c.017-.016.017-.016.033,0,.7-.2,1.391-.409,2.086-.572.254-.066.507-.139.761-.2,1-.27,1.987-.523,2.985-.761,1.055-.27,2.086-.523,3.141-.761,1.039-.254,2.07-.491,3.125-.712.458-.123.916-.221,1.374-.3a4.579,4.579,0,0,1,.679-.155c1.014-.237,2.037-.442,3.051-.646a6.529,6.529,0,0,1,.949-.188,2.236,2.236,0,0,1,.319-.065c.016-.016.016-.016.033,0,1.185-.253,2.388-.474,3.583-.7.867-.172,1.725-.319,2.593-.458.948-.172,1.9-.335,2.862-.491.188-.033.36-.066.524-.082,1.276-.2,2.527-.409,3.82-.6,1.644-.237,3.272-.474,4.916-.679l.36-.049Zm-264.983-95.518a40.12,40.12,0,0,1-4.359.237,39.529,39.529,0,0,1-17.267-3.951L961.567,849.7a42.954,42.954,0,0,1,9.6,15.958l90.258-30.116Zm264.983,95.518a30.516,30.516,0,0,1-8.171,1.832V927.6c.646.082,1.292.188,1.914.319.409.065.793.172,1.2.27a1.582,1.582,0,0,1,.27.066c.36.082.729.188,1.088.3.3.082.614.188.916.286.474.156.933.319,1.407.507a2.588,2.588,0,0,1,.442.172c.156.049.286.123.442.188.393.155.761.319,1.137.507.188.082.376.172.556.27.188.082.376.188.556.286.22.123.442.237.662.36.156.082.319.172.474.27.254.155.507.3.761.458.172.1.319.2.474.3.474.3.949.63,1.407.965.2.155.409.3.613.458.614.458,1.2.949,1.767,1.456.139.123.27.254.409.376.7.646,1.358,1.325,1.987,2.02a.643.643,0,0,1,.237-.066c.017-.016.017-.016.033,0,.7-.2,1.391-.409,2.086-.572.254-.066.507-.139.761-.2,1-.27,1.987-.523,2.985-.761,1.055-.27,2.086-.523,3.141-.761,1.039-.254,2.07-.491,3.125-.712.458-.123.916-.221,1.374-.3a4.579,4.579,0,0,1,.679-.155c1.014-.237,2.037-.442,3.051-.646a6.529,6.529,0,0,1,.949-.188,2.236,2.236,0,0,1,.319-.065c.016-.016.016-.016.033,0,1.185-.253,2.388-.474,3.583-.7.867-.172,1.725-.319,2.593-.458.948-.172,1.9-.335,2.862-.491.188-.033.36-.066.524-.082,1.276-.2,2.527-.409,3.82-.6,1.644-.237,3.272-.474,4.916-.679l.36-.049Zm0,0a30.516,30.516,0,0,1-8.171,1.832V927.6c.646.082,1.292.188,1.914.319.409.065.793.172,1.2.27a1.582,1.582,0,0,1,.27.066c.36.082.729.188,1.088.3.3.082.614.188.916.286.474.156.933.319,1.407.507a2.588,2.588,0,0,1,.442.172c.156.049.286.123.442.188.393.155.761.319,1.137.507.188.082.376.172.556.27.188.082.376.188.556.286.22.123.442.237.662.36.156.082.319.172.474.27.254.155.507.3.761.458.172.1.319.2.474.3.474.3.949.63,1.407.965.2.155.409.3.613.458.614.458,1.2.949,1.767,1.456.139.123.27.254.409.376.7.646,1.358,1.325,1.987,2.02a.643.643,0,0,1,.237-.066c.017-.016.017-.016.033,0,.7-.2,1.391-.409,2.086-.572.254-.066.507-.139.761-.2,1-.27,1.987-.523,2.985-.761,1.055-.27,2.086-.523,3.141-.761,1.039-.254,2.07-.491,3.125-.712.458-.123.916-.221,1.374-.3a4.579,4.579,0,0,1,.679-.155c1.014-.237,2.037-.442,3.051-.646a6.529,6.529,0,0,1,.949-.188,2.236,2.236,0,0,1,.319-.065c.016-.016.016-.016.033,0,1.185-.253,2.388-.474,3.583-.7.867-.172,1.725-.319,2.593-.458.948-.172,1.9-.335,2.862-.491.188-.033.36-.066.524-.082,1.276-.2,2.527-.409,3.82-.6,1.644-.237,3.272-.474,4.916-.679l.36-.049ZM939.319,568.641c-.139.049-.286.1-.426.139V723.024l57.46-9.766a39.511,39.511,0,0,1,14.96-30.321Zm365.988,280.23a30.516,30.516,0,0,1-8.171,1.832V927.6c.646.082,1.292.188,1.914.319.409.065.793.172,1.2.27a1.582,1.582,0,0,1,.27.066c.36.082.729.188,1.088.3.3.082.614.188.916.286.474.156.933.319,1.407.507a2.588,2.588,0,0,1,.442.172c.156.049.286.123.442.188.393.155.761.319,1.137.507.188.082.376.172.556.27.188.082.376.188.556.286.22.123.442.237.662.36.156.082.319.172.474.27.254.155.507.3.761.458.172.1.319.2.474.3.474.3.949.63,1.407.965.2.155.409.3.613.458.614.458,1.2.949,1.767,1.456.139.123.27.254.409.376.7.646,1.358,1.325,1.987,2.02a.643.643,0,0,1,.237-.066c.017-.016.017-.016.033,0,.7-.2,1.391-.409,2.086-.572.254-.066.507-.139.761-.2,1-.27,1.987-.523,2.985-.761,1.055-.27,2.086-.523,3.141-.761,1.039-.254,2.07-.491,3.125-.712.458-.123.916-.221,1.374-.3a4.579,4.579,0,0,1,.679-.155c1.014-.237,2.037-.442,3.051-.646a6.529,6.529,0,0,1,.949-.188,2.236,2.236,0,0,1,.319-.065c.016-.016.016-.016.033,0,1.185-.253,2.388-.474,3.583-.7.867-.172,1.725-.319,2.593-.458.948-.172,1.9-.335,2.862-.491.188-.033.36-.066.524-.082,1.276-.2,2.527-.409,3.82-.6,1.644-.237,3.272-.474,4.916-.679l.36-.049ZM1010.863,585.278a27.526,27.526,0,0,1,.393-4.6L957.346,555.8a33.226,33.226,0,0,1-10.142,9.447L1018.461,678.4a39.2,39.2,0,0,1,14.96-3.983V611.729A26.784,26.784,0,0,1,1010.863,585.278Zm294.445,263.593a30.516,30.516,0,0,1-8.171,1.832V927.6c.646.082,1.292.188,1.914.319.409.065.793.172,1.2.27a1.582,1.582,0,0,1,.27.066c.36.082.729.188,1.088.3.3.082.614.188.916.286.474.156.933.319,1.407.507a2.588,2.588,0,0,1,.442.172c.156.049.286.123.442.188.393.155.761.319,1.137.507.188.082.376.172.556.27.188.082.376.188.556.286.22.123.442.237.662.36.156.082.319.172.474.27.254.155.507.3.761.458.172.1.319.2.474.3.474.3.949.63,1.407.965.2.155.409.3.613.458.614.458,1.2.949,1.767,1.456.139.123.27.254.409.376.7.646,1.358,1.325,1.987,2.02a.643.643,0,0,1,.237-.066c.017-.016.017-.016.033,0,.7-.2,1.391-.409,2.086-.572.254-.066.507-.139.761-.2,1-.27,1.987-.523,2.985-.761,1.055-.27,2.086-.523,3.141-.761,1.039-.254,2.07-.491,3.125-.712.458-.123.916-.221,1.374-.3a4.579,4.579,0,0,1,.679-.155c1.014-.237,2.037-.442,3.051-.646a6.529,6.529,0,0,1,.949-.188,2.236,2.236,0,0,1,.319-.065c.016-.016.016-.016.033,0,1.185-.253,2.388-.474,3.583-.7.867-.172,1.725-.319,2.593-.458.948-.172,1.9-.335,2.862-.491.188-.033.36-.066.524-.082,1.276-.2,2.527-.409,3.82-.6,1.644-.237,3.272-.474,4.916-.679l.36-.049Zm0,0a30.516,30.516,0,0,1-8.171,1.832V927.6c.646.082,1.292.188,1.914.319.409.065.793.172,1.2.27a1.582,1.582,0,0,1,.27.066c.36.082.729.188,1.088.3.3.082.614.188.916.286.474.156.933.319,1.407.507a2.588,2.588,0,0,1,.442.172c.156.049.286.123.442.188.393.155.761.319,1.137.507.188.082.376.172.556.27.188.082.376.188.556.286.22.123.442.237.662.36.156.082.319.172.474.27.254.155.507.3.761.458.172.1.319.2.474.3.474.3.949.63,1.407.965.2.155.409.3.613.458.614.458,1.2.949,1.767,1.456.139.123.27.254.409.376.7.646,1.358,1.325,1.987,2.02a.643.643,0,0,1,.237-.066c.017-.016.017-.016.033,0,.7-.2,1.391-.409,2.086-.572.254-.066.507-.139.761-.2,1-.27,1.987-.523,2.985-.761,1.055-.27,2.086-.523,3.141-.761,1.039-.254,2.07-.491,3.125-.712.458-.123.916-.221,1.374-.3a4.579,4.579,0,0,1,.679-.155c1.014-.237,2.037-.442,3.051-.646a6.529,6.529,0,0,1,.949-.188,2.236,2.236,0,0,1,.319-.065c.016-.016.016-.016.033,0,1.185-.253,2.388-.474,3.583-.7.867-.172,1.725-.319,2.593-.458.948-.172,1.9-.335,2.862-.491.188-.033.36-.066.524-.082,1.276-.2,2.527-.409,3.82-.6,1.644-.237,3.272-.474,4.916-.679l.36-.049ZM1028.653,441.413a26.184,26.184,0,0,1-8.466-2.748l-65.532,75.871a33.084,33.084,0,0,1,6.634,33.756l52.74,24.349a26.7,26.7,0,0,1,18.91-13.733Zm276.655,407.458a30.516,30.516,0,0,1-8.171,1.832V927.6c.646.082,1.292.188,1.914.319.409.065.793.172,1.2.27a1.582,1.582,0,0,1,.27.066c.36.082.729.188,1.088.3.3.082.614.188.916.286.474.156.933.319,1.407.507a2.588,2.588,0,0,1,.442.172c.156.049.286.123.442.188.393.155.761.319,1.137.507.188.082.376.172.556.27.188.082.376.188.556.286.22.123.442.237.662.36.156.082.319.172.474.27.254.155.507.3.761.458.172.1.319.2.474.3.474.3.949.63,1.407.965.2.155.409.3.613.458.614.458,1.2.949,1.767,1.456.139.123.27.254.409.376.7.646,1.358,1.325,1.987,2.02a.643.643,0,0,1,.237-.066c.017-.016.017-.016.033,0,.7-.2,1.391-.409,2.086-.572.254-.066.507-.139.761-.2,1-.27,1.987-.523,2.985-.761,1.055-.27,2.086-.523,3.141-.761,1.039-.254,2.07-.491,3.125-.712.458-.123.916-.221,1.374-.3a4.579,4.579,0,0,1,.679-.155c1.014-.237,2.037-.442,3.051-.646a6.529,6.529,0,0,1,.949-.188,2.236,2.236,0,0,1,.319-.065c.016-.016.016-.016.033,0,1.185-.253,2.388-.474,3.583-.7.867-.172,1.725-.319,2.593-.458.948-.172,1.9-.335,2.862-.491.188-.033.36-.066.524-.082,1.276-.2,2.527-.409,3.82-.6,1.644-.237,3.272-.474,4.916-.679l.36-.049Zm0,0a30.516,30.516,0,0,1-8.171,1.832V927.6c.646.082,1.292.188,1.914.319.409.065.793.172,1.2.27a1.582,1.582,0,0,1,.27.066c.36.082.729.188,1.088.3.3.082.614.188.916.286.474.156.933.319,1.407.507a2.588,2.588,0,0,1,.442.172c.156.049.286.123.442.188.393.155.761.319,1.137.507.188.082.376.172.556.27.188.082.376.188.556.286.22.123.442.237.662.36.156.082.319.172.474.27.254.155.507.3.761.458.172.1.319.2.474.3.474.3.949.63,1.407.965.2.155.409.3.613.458.614.458,1.2.949,1.767,1.456.139.123.27.254.409.376.7.646,1.358,1.325,1.987,2.02a.643.643,0,0,1,.237-.066c.017-.016.017-.016.033,0,.7-.2,1.391-.409,2.086-.572.254-.066.507-.139.761-.2,1-.27,1.987-.523,2.985-.761,1.055-.27,2.086-.523,3.141-.761,1.039-.254,2.07-.491,3.125-.712.458-.123.916-.221,1.374-.3a4.579,4.579,0,0,1,.679-.155c1.014-.237,2.037-.442,3.051-.646.319-.065.63-.139.949-.188a2.236,2.236,0,0,1,.319-.065c.016-.016.016-.016.033,0,1.185-.253,2.388-.474,3.583-.7.867-.172,1.725-.319,2.593-.458.948-.172,1.9-.335,2.862-.491.188-.033.36-.066.524-.082,1.276-.2,2.527-.409,3.82-.6,1.644-.237,3.272-.474,4.916-.679l.36-.049Zm-212.971-544.4c0-.6.017-1.17.049-1.767l-76.312-12.416L951.866,337.5a24.7,24.7,0,0,1,1.71,24.775l57.827,36.193h.016a26.78,26.78,0,0,1,36.16-5.766l54.858-62.031A38.874,38.874,0,0,1,1092.336,304.467Zm212.971,544.4a30.516,30.516,0,0,1-8.171,1.832V927.6c.646.082,1.292.188,1.914.319.409.065.793.172,1.2.27a1.582,1.582,0,0,1,.27.066c.36.082.729.188,1.088.3.3.082.614.188.916.286.474.156.933.319,1.407.507a2.588,2.588,0,0,1,.442.172c.156.049.286.123.442.188.393.155.761.319,1.137.507.188.082.376.172.556.27.188.082.376.188.556.286.22.123.442.237.662.36.156.082.319.172.474.27.254.155.507.3.761.458.172.1.319.2.474.3.474.3.949.63,1.407.965.2.155.409.3.613.458.614.458,1.2.949,1.767,1.456.139.123.27.254.409.376.7.646,1.358,1.325,1.987,2.02a.643.643,0,0,1,.237-.066c.017-.016.017-.016.033,0,.7-.2,1.391-.409,2.086-.572.254-.066.507-.139.761-.2,1-.27,1.987-.523,2.985-.761,1.055-.27,2.086-.523,3.141-.761,1.039-.254,2.07-.491,3.125-.712.458-.123.916-.221,1.374-.3a4.579,4.579,0,0,1,.679-.155c1.014-.237,2.037-.442,3.051-.646.319-.065.63-.139.949-.188a2.236,2.236,0,0,1,.319-.065c.016-.016.016-.016.033,0,1.185-.253,2.388-.474,3.583-.7.867-.172,1.725-.319,2.593-.458.948-.172,1.9-.335,2.862-.491.188-.033.36-.066.524-.082,1.276-.2,2.527-.409,3.82-.6,1.644-.237,3.272-.474,4.916-.679l.36-.049ZM1094.88,241.25H970.335a31.441,31.441,0,0,0-31.441,31.441v55.1a24.933,24.933,0,0,1,7.018,3.574l68.018-50.033,79.74,12.989a39.085,39.085,0,0,1,31.883-28.488A31.415,31.415,0,0,0,1094.88,241.25Z" transform="translate(-936.663 -241.25)" fill="#3c4066"/>
    </g>
  </g>
</svg>
