<svg xmlns="http://www.w3.org/2000/svg" width="24" height="24" viewBox="0 0 24 24">
  <g id="Group_524" data-name="Group 524" transform="translate(-3898 -2973)">
    <g id="Rectangle_294" data-name="Rectangle 294" transform="translate(3898 2973)" fill="#fff" stroke="#707070" stroke-width="1" opacity="0">
      <rect width="24" height="24" stroke="none"/>
      <rect x="0.5" y="0.5" width="23" height="23" fill="none"/>
    </g>
    <path id="bx-revision" d="M19.89,10.1A8.7,8.7,0,0,0,19.1,8.649L17.443,9.768a6.466,6.466,0,0,1,.6,1.115,6.6,6.6,0,0,1,.383,3.878,6.5,6.5,0,0,1-.384,1.231,6.4,6.4,0,0,1-.6,1.112,6.6,6.6,0,0,1-1.776,1.775,6.457,6.457,0,0,1-1.114.6,6.606,6.606,0,0,1-1.229.383,6.734,6.734,0,0,1-2.646,0,6.551,6.551,0,0,1-1.233-.384,6.486,6.486,0,0,1-1.113-.6,6.565,6.565,0,0,1-.971-.8,6.749,6.749,0,0,1-.8-.973A6.557,6.557,0,0,1,7.36,8.8a6.506,6.506,0,0,1,.972-.8A6.628,6.628,0,0,1,9.446,7.39a6.539,6.539,0,0,1,1.23-.382c.107-.022.216-.032.324-.049V10l5-4L11,2V4.938c-.243.029-.486.062-.725.111a8.584,8.584,0,0,0-4.33,2.334A8.571,8.571,0,0,0,4.11,10.1a8.542,8.542,0,0,0-.673,3.334,8.635,8.635,0,0,0,.174,1.725A8.53,8.53,0,0,0,4.9,18.226a8.867,8.867,0,0,0,1.045,1.268A8.614,8.614,0,0,0,7.21,20.537a8.41,8.41,0,0,0,1.456.79,8.55,8.55,0,0,0,1.609.5,8.672,8.672,0,0,0,3.452,0,8.576,8.576,0,0,0,1.6-.5,8.418,8.418,0,0,0,1.457-.79,8.617,8.617,0,0,0,1.268-1.046A8.711,8.711,0,0,0,19.1,18.225a8.579,8.579,0,0,0,1.288-3.063,8.568,8.568,0,0,0-.5-5.057Z" transform="translate(3898.013 2972)" fill="#fff"/>
  </g>
</svg>
