<svg xmlns="http://www.w3.org/2000/svg" width="100.011" height="63.375" viewBox="0 0 100.011 63.375"><defs><style>.a{fill:#5e6287;}.b{fill:#4ec47f;}</style></defs><g transform="translate(-1106.994 -235)"><path class="a" d="M4158.689-24064h0l-34.689,0a4,4,0,0,1-4-4v-46a4.006,4.006,0,0,1,4-4h92a4.009,4.009,0,0,1,4.007,4v46a4.006,4.006,0,0,1-4.007,4h-34.684a3.025,3.025,0,0,0,.128-1.5H4215.5a3.008,3.008,0,0,0,3.008-3v-45a3.005,3.005,0,0,0-3.008-3h-91a3,3,0,0,0-3,3v45a3,3,0,0,0,3,3h34.06a3.027,3.027,0,0,0,.128,1.5Z" transform="translate(-3013.003 24353)"/><rect class="a" width="14.672" height="14.672" rx="3" transform="translate(1146.625 288) rotate(-45)"/><circle class="b" cx="3" cy="3" r="3" transform="translate(1154 285)"/></g></svg>