<svg xmlns="http://www.w3.org/2000/svg" width="24" height="24" viewBox="0 0 24 24">
  <g id="Group_534" data-name="Group 534" transform="translate(-832 -472)">
    <g id="Rectangle_295" data-name="Rectangle 295" transform="translate(832 472)" fill="#fff" stroke="#707070" stroke-width="1" opacity="0">
      <rect width="24" height="24" stroke="none"/>
      <rect x="0.5" y="0.5" width="23" height="23" fill="none"/>
    </g>
    <g id="Group_533" data-name="Group 533" transform="translate(195 162)">
      <g id="Rectangle_116" data-name="Rectangle 116" transform="translate(637 310)" fill="#fff" stroke="#707070" stroke-width="1" opacity="0">
        <rect width="24" height="24" stroke="none"/>
        <rect x="0.5" y="0.5" width="23" height="23" fill="none"/>
      </g>
      <path id="Subtraction_1" data-name="Subtraction 1" d="M10.571,16.341h-4.7A5.861,5.861,0,0,1,0,10.5,6.121,6.121,0,0,1,4.413,4.844,7.9,7.9,0,0,1,11.745,0,8.215,8.215,0,0,1,19.9,7.133a4.736,4.736,0,0,1,2.566,1.633,4.6,4.6,0,0,1,1.023,2.906,4.689,4.689,0,0,1-4.7,4.668H12.92V11.781h3.524l-4.7-5.836-4.7,5.836h3.523V16.34Z" transform="translate(637.255 313.83)" fill="#fff"/>
    </g>
  </g>
</svg>
