<svg xmlns="http://www.w3.org/2000/svg" width="92" height="64.001" viewBox="0 0 92 64.001">
  <path id="Subtraction_1" data-name="Subtraction 1" d="M-3312.6-3836H-3331a22.954,22.954,0,0,1-23-22.856,21.05,21.05,0,0,1,1.311-7.256,23.638,23.638,0,0,1,3.625-6.467,24.867,24.867,0,0,1,12.346-8.449,31.56,31.56,0,0,1,11.49-13.838A31.059,31.059,0,0,1-3308-3900a32.26,32.26,0,0,1,21.359,8.07,31.911,31.911,0,0,1,10.584,19.871,18.538,18.538,0,0,1,10.049,6.394,18.217,18.217,0,0,1,2.945,5.25,18.076,18.076,0,0,1,1.064,6.128A18.364,18.364,0,0,1-3280.4-3836h-23v-17.857h13.8l-18.4-22.857-18.4,22.857h13.8V-3836Z" transform="translate(3354 3900)" fill="#5e6287"/>
</svg>
