<svg id="Group_1388" data-name="Group 1388" xmlns="http://www.w3.org/2000/svg" width="124" height="124" viewBox="0 0 124 124">
  <g id="Ellipse_206" data-name="Ellipse 206" transform="translate(10 10)" fill="#5e6287" stroke="#707070" stroke-width="1">
    <circle cx="52" cy="52" r="52" stroke="none"/>
    <circle cx="52" cy="52" r="51.5" fill="none"/>
  </g>
  <path id="bxs-user-circle" d="M64,2C30.39,2,2,30.39,2,64s28.39,62,62,62,62-28.39,62-62S97.61,2,64,2Zm0,31c10.707,0,18.6,7.886,18.6,18.6S74.707,70.2,64,70.2,45.4,62.314,45.4,51.6,53.3,33,64,33ZM32.343,93.586A30.748,30.748,0,0,1,57.8,79.946H70.2a30.739,30.739,0,0,1,25.457,13.64,43.182,43.182,0,0,1-63.314,0Z" transform="translate(-2 -2)" fill="#3c4066"/>
</svg>
