<svg xmlns="http://www.w3.org/2000/svg" width="64" height="64" viewBox="0 0 64 64"><defs><style>.a{fill:#8284a8;stroke:#707070;}.b{fill:#5e6287;}.c{stroke:none;}.d{fill:none;}</style></defs><g transform="translate(-378 -2188)"><g class="a" transform="translate(382 2192)"><rect class="c" width="56" height="56" rx="28"/><rect class="d" x="0.5" y="0.5" width="55" height="55" rx="27.5"/></g><path class="b" d="M34,2A32.427,32.427,0,0,0,2,34,32.427,32.427,0,0,0,34,66,32.427,32.427,0,0,0,66,34,32.427,32.427,0,0,0,34,2Zm0,16a9.325,9.325,0,0,1,9.6,9.6A9.325,9.325,0,0,1,34,37.2a9.327,9.327,0,0,1-9.6-9.6A9.327,9.327,0,0,1,34,18ZM17.661,49.27A15.87,15.87,0,0,1,30.8,42.23h6.4a15.865,15.865,0,0,1,13.139,7.04,22.287,22.287,0,0,1-32.678,0Z" transform="translate(376 2186)"/></g></svg>