<svg xmlns="http://www.w3.org/2000/svg" width="24" height="24" viewBox="0 0 24 24"><defs><style>.a,.b{fill:#fff;}.a{stroke:#707070;opacity:0;}.c{stroke:none;}.d{fill:none;}</style></defs><g transform="translate(-1200 -100)"><g class="a" transform="translate(1200 100)"><rect class="c" width="24" height="24"/><rect class="d" x="0.5" y="0.5" width="23" height="23"/></g><path class="b" d="M20.664,3.477,8,7.911v6.864l.748.262-1.127,2.21a1.926,1.926,0,0,0-.06,1.627,1.989,1.989,0,0,0,1.216,1.111l4.084,1.335a2.029,2.029,0,0,0,2.421-.984l1.3-2.555,4.079,1.429A1,1,0,0,0,22,18.287V4.4A1,1,0,0,0,20.664,3.477ZM13.493,19.46,9.41,18.125,10.645,15.7l4.042,1.416ZM4,14.775H6V7.911H4A1.983,1.983,0,0,0,2,9.872v2.942A1.983,1.983,0,0,0,4,14.775Z" transform="translate(1200 99.582)"/></g></svg>