<svg xmlns="http://www.w3.org/2000/svg" width="32" height="32" viewBox="0 0 32 32">
  <g id="add_to_video" data-name="add to video" transform="translate(-8837 -19601)">
    <circle id="Ellipse_67" data-name="Ellipse 67" cx="16" cy="16" r="16" transform="translate(8837 19601)" fill="#3c4066"/>
    <g id="video_on" data-name="video on" transform="translate(8845 19609)">
      <g id="Rectangle_944" data-name="Rectangle 944" fill="#fff" stroke="#707070" stroke-width="1" opacity="0">
        <rect width="16" height="16" stroke="none"/>
        <rect x="0.5" y="0.5" width="15" height="15" fill="none"/>
      </g>
      <path id="Camera" d="M1.743,6.248A5.805,5.805,0,0,0,1.5,8.657v.686a5.805,5.805,0,0,0,.243,2.409,2.26,2.26,0,0,0,.976,1A5.426,5.426,0,0,0,5.072,13H6.3a5.426,5.426,0,0,0,2.353-.249,2.26,2.26,0,0,0,.976-1,2.356,2.356,0,0,0,.21-.867.586.586,0,0,1,.877-.484l1.935,1.211a.558.558,0,0,0,.849-.488V6.876a.558.558,0,0,0-.849-.488L10.716,7.6a.586.586,0,0,1-.877-.484,2.356,2.356,0,0,0-.21-.867,2.26,2.26,0,0,0-.976-1A5.426,5.426,0,0,0,6.3,5H5.072a5.426,5.426,0,0,0-2.353.249A2.26,2.26,0,0,0,1.743,6.248Z" transform="translate(-0.5 1.786)" fill="#fff" fill-rule="evenodd"/>
      <path id="Union_8" data-name="Union 8" d="M-8555.428-19128.43v-2.143h-2.142a.428.428,0,0,1-.432-.428.431.431,0,0,1,.432-.432h2.142v-2.141a.428.428,0,0,1,.428-.428.428.428,0,0,1,.428.428v2.141h2.142a.431.431,0,0,1,.432.432.428.428,0,0,1-.432.428h-2.142v2.143a.433.433,0,0,1-.428.432A.433.433,0,0,1-8555.428-19128.43Z" transform="translate(8566 19134)" fill="#fff"/>
    </g>
  </g>
</svg>
