<svg id="event_locked" data-name="event locked" xmlns="http://www.w3.org/2000/svg" width="24" height="24" viewBox="0 0 24 24">
  <g id="Rectangle_160" data-name="Rectangle 160" fill="#f55" stroke="#707070" stroke-width="1" opacity="0">
    <rect width="24" height="24" stroke="none"/>
    <rect x="0.5" y="0.5" width="23" height="23" fill="none"/>
  </g>
  <path id="bxs-lock-alt" d="M20,12a2,2,0,0,0-2-2H17V7A5,5,0,0,0,7,7v3H6a2,2,0,0,0-2,2v8a2,2,0,0,0,2,2H18a2,2,0,0,0,2-2ZM9,7a3,3,0,0,1,6,0v3H9Z" fill="#f55"/>
</svg>
