<svg id="ads_hover" data-name="ads hover" xmlns="http://www.w3.org/2000/svg" width="24" height="24" viewBox="0 0 24 24">
  <g id="Rectangle_98" data-name="Rectangle 98" opacity="0">
    <rect id="Rectangle_1786" data-name="Rectangle 1786" width="24" height="24" fill="#8284a8"/>
    <rect id="Rectangle_1787" data-name="Rectangle 1787" width="23" height="23" transform="translate(0.5 0.5)" fill="#8284a8" stroke="#707070" stroke-width="1"/>
  </g>
  <path id="bx-square-rounded" d="M17,2H7A5.006,5.006,0,0,0,2,7V17a5.006,5.006,0,0,0,5,5H17a5.006,5.006,0,0,0,5-5V7A5.006,5.006,0,0,0,17,2Zm3,15a3,3,0,0,1-3,3H7a3,3,0,0,1-3-3V7A3,3,0,0,1,7,4H17a3,3,0,0,1,3,3Z" fill="#8284a8"/>
  <g id="Ad" style="isolation: isolate">
    <g id="Group_1486" data-name="Group 1486" style="isolation: isolate">
      <path id="Path_1251" data-name="Path 1251" d="M10.1,14.107H8.025l-.4,1.393H5.978L8.109,9.158h1.973L11.106,12.2l1.107,3.3H10.5Zm-1.763-1.16H9.783L9.08,10.5H9.045Z" fill="#8284a8"/>
      <path id="Path_1252" data-name="Path 1252" d="M12.354,13.043c0-1.551.751-2.5,1.968-2.5a1.513,1.513,0,0,1,1.468.923h.031V8.842h1.56V15.5H15.83v-.84H15.8a1.544,1.544,0,0,1-1.494.906C13.1,15.566,12.354,14.612,12.354,13.043Zm1.59.01c0,.8.361,1.287.946,1.287s.94-.488.94-1.283-.36-1.287-.94-1.287S13.944,12.262,13.944,13.053Z" fill="#8284a8"/>
    </g>
  </g>
</svg>
