<svg id="bookmarked_Inactive" data-name="bookmarked Inactive" xmlns="http://www.w3.org/2000/svg" width="32" height="32" viewBox="0 0 32 32">
  <circle id="Ellipse_77" data-name="Ellipse 77" cx="16" cy="16" r="16" fill="#3c4066"/>
  <g id="Group_494" data-name="Group 494" transform="translate(-305 -512)">
    <g id="Rectangle_288" data-name="Rectangle 288" transform="translate(313 520)" fill="#fff" stroke="#707070" stroke-width="1" opacity="0">
      <rect width="16" height="16" stroke="none"/>
      <rect x="0.5" y="0.5" width="15" height="15" fill="none"/>
    </g>
    <g id="bxs-bookmark" transform="translate(311.333 519.201)" fill="none" stroke-linecap="round" stroke-linejoin="round">
      <path d="M14.333,7.5V3.474A1.339,1.339,0,0,0,13,2.132H6.333A1.339,1.339,0,0,0,5,3.474V15.465l4.667-3.131,4.667,3.131Z" stroke="none"/>
      <path d="M 6.33333683013916 3.131998062133789 C 6.149537086486816 3.131998062133789 5.999997138977051 3.285508155822754 5.999997138977051 3.474187850952148 L 5.999997138977051 6.829668045043945 L 5.999997138977051 7.500767707824707 L 5.999997138977051 13.59007263183594 L 9.109477043151855 11.50360774993896 C 9.277997016906738 11.39053344726563 9.472332000732422 11.3339958190918 9.666666984558105 11.3339958190918 C 9.861001968383789 11.3339958190918 10.05533695220947 11.39053344726563 10.22385692596436 11.50360774993896 L 13.33333683013916 13.59007263183594 L 13.33333683013916 7.500767707824707 L 13.33333683013916 6.829668045043945 L 13.33333683013916 3.474187850952148 C 13.33333683013916 3.285508155822754 13.18379688262939 3.131998062133789 12.99999713897705 3.131998062133789 L 6.33333683013916 3.131998062133789 M 6.33333683013916 2.131998062133789 L 12.99999713897705 2.131998062133789 C 13.73533630371094 2.131998062133789 14.33333683013916 2.733967781066895 14.33333683013916 3.474187850952148 L 14.33333683013916 6.829668045043945 L 14.33333683013916 7.500767707824707 L 14.33333683013916 15.4653377532959 L 9.666666984558105 12.33399772644043 L 4.999997138977051 15.4653377532959 L 4.999997138977051 7.500767707824707 L 4.999997138977051 6.829668045043945 L 4.999997138977051 3.474187850952148 C 4.999997138977051 2.733978271484375 5.597996711730957 2.131998062133789 6.33333683013916 2.131998062133789 Z" stroke="none" fill="#fff"/>
    </g>
  </g>
</svg>
