<svg xmlns="http://www.w3.org/2000/svg" width="24" height="24" viewBox="0 0 24 24">
  <g id="ic_call_messanger_disabled" transform="translate(-290 -524)">
    <g id="Group_493" data-name="Group 493" transform="translate(290 524)">
      <g id="Rectangle_287" data-name="Rectangle 287" fill="#5e6287" stroke="#707070" stroke-width="1" opacity="0">
        <rect width="24" height="24" stroke="none"/>
        <rect x="0.5" y="0.5" width="23" height="23" fill="none"/>
      </g>
      <g id="Group_1534" data-name="Group 1534" transform="translate(38.006 -1.87)">
        <path id="Subtraction_10" data-name="Subtraction 10" d="M13.208,16a13.866,13.866,0,0,1-6.022-1.465l5.108-5.105,3.414,3.1a.9.9,0,0,1,.076,1.246l-1.672,1.953a.891.891,0,0,1-.581.259C13.511,15.991,13.394,16,13.208,16ZM4.889,13.061h0a13.041,13.041,0,0,1-1.028-.923A13.668,13.668,0,0,1,.006,2.469a.9.9,0,0,1,.26-.583L2.216.218a.895.895,0,0,1,1.25.076l3.319,3.65a.889.889,0,0,1-.04,1.247L4.538,7.342A5.076,5.076,0,0,0,6.03,9.969a6.129,6.129,0,0,0,1.085.867L4.89,13.061Z" transform="translate(-34.005 5.871)" fill="#5e6287"/>
        <path id="Path_1256" data-name="Path 1256" d="M21.785,8.876,8.8,21.863" transform="translate(-41.925 0.344)" fill="#5e6287" stroke="#5e6287" stroke-width="2"/>
      </g>
    </g>
  </g>
</svg>
