<svg xmlns="http://www.w3.org/2000/svg" width="36" height="36" viewBox="0 0 36 36">
  <g id="Clap_with_BG" data-name="Clap with BG" transform="translate(-16 -326)">
    <circle id="Ellipse_67" data-name="Ellipse 67" cx="18" cy="18" r="18" transform="translate(16 326)" fill="#4ec47f"/>
    <g id="Group_807" data-name="Group 807" transform="translate(-1683 -7509)">
      <g id="Rectangle_772" data-name="Rectangle 772" transform="translate(1705 7841)" fill="#fff" stroke="#707070" stroke-width="1" opacity="0">
        <rect width="24" height="24" stroke="none"/>
        <rect x="0.5" y="0.5" width="23" height="23" fill="none"/>
      </g>
      <g id="clapping-hands" transform="translate(1698.783 7843.001)">
        <path id="Path_1196" data-name="Path 1196" d="M16.147,65.726l2.631-3.589a2.121,2.121,0,0,1,1.537-.844.847.847,0,0,0-.122-.361.966.966,0,0,0-1.28-.319l-.629.347a.843.843,0,0,0-.016-.862.966.966,0,0,0-1.28-.319l-5.629,3.1.622-1.5a.871.871,0,0,0-.528-1.148.954.954,0,0,0-1.214.5s-1.205,2.877-1.6,3.839S8,66.234,8.485,67.029l1.13,1.835a2.546,2.546,0,0,0,2.8,1.081L12.2,66.771a2.022,2.022,0,0,1,1.96-2.1A2.121,2.121,0,0,1,16.147,65.726Z" transform="translate(0 -55.737)" fill="#fff"/>
        <path id="Path_1197" data-name="Path 1197" d="M219.11,28.736a.542.542,0,0,0,.737,0l2.551-2.413a.474.474,0,0,0,0-.7.542.542,0,0,0-.737,0l-2.551,2.413A.474.474,0,0,0,219.11,28.736Z" transform="translate(-196.103 -23.808)" fill="#fff"/>
        <path id="Path_1198" data-name="Path 1198" d="M194.591,3.424a.527.527,0,0,0,.654-.32l.829-2.462a.488.488,0,0,0-.338-.619.527.527,0,0,0-.654.32l-.829,2.462A.488.488,0,0,0,194.591,3.424Z" transform="translate(-173.091 0)" fill="#fff"/>
        <path id="Path_1199" data-name="Path 1199" d="M247.306,75.341a.527.527,0,0,0-.654-.32l-2.6.784a.484.484,0,0,0-.311.682c.022.031.042.062.062.094a.537.537,0,0,0,.565.164l2.6-.784A.488.488,0,0,0,247.306,75.341Z" transform="translate(-219.113 -70.07)" fill="#fff"/>
        <path id="Path_1200" data-name="Path 1200" d="M91.8,104.459a1.1,1.1,0,0,0-1.02-.094l.995-1.357a.962.962,0,0,0-.265-1.385,1.1,1.1,0,0,0-1.02-.094l.571-.779a.962.962,0,0,0-.265-1.385,1.09,1.09,0,0,0-1.464.251l-.466.636a.976.976,0,0,0-.45-.871,1.09,1.09,0,0,0-1.464.251l-4.172,5.691-.119-1.8a1.033,1.033,0,0,0-1.115-.931,1.016,1.016,0,0,0-.985,1.055s.214,3.472.3,4.628c.091,1.174.175,1.981,1.074,2.57l2.073,1.36a2.883,2.883,0,0,0,1.584.469,2.835,2.835,0,0,0,2.294-1.133l4.174-5.694A.962.962,0,0,0,91.8,104.459Z" transform="translate(-67.319 -92.671)" fill="#fff"/>
      </g>
    </g>
  </g>
</svg>
