<svg xmlns="http://www.w3.org/2000/svg" width="32" height="32" viewBox="0 0 32 32">
  <g id="Accept" transform="translate(-282 -516)">
    <circle id="Ellipse_76" data-name="Ellipse 76" cx="16" cy="16" r="16" transform="translate(282 516)" fill="#4ec47f"/>
    <g id="Group_493" data-name="Group 493" transform="translate(-1 4)">
      <g id="Rectangle_287" data-name="Rectangle 287" transform="translate(291 520)" fill="#fff" stroke="#707070" stroke-width="1" opacity="0">
        <rect width="16" height="16" stroke="none"/>
        <rect x="0.5" y="0.5" width="15" height="15" fill="none"/>
      </g>
      <path id="bxs-phone" d="M14.779,12.585,12.041,10.1a.674.674,0,0,0-.937.029L9.492,11.782a3.867,3.867,0,0,1-1.971-1.118A3.848,3.848,0,0,1,6.4,8.693L8.059,7.081a.674.674,0,0,0,.029-.937L5.6,3.406a.673.673,0,0,0-.937-.059L3.2,4.6a.674.674,0,0,0-.2.437A10.173,10.173,0,0,0,5.9,12.29a10.2,10.2,0,0,0,7.01,2.9c.136,0,.22,0,.242-.005a.668.668,0,0,0,.436-.2l1.253-1.462A.672.672,0,0,0,14.779,12.585Z" transform="translate(290 518.815)" fill="#fff"/>
    </g>
  </g>
</svg>
