<svg id="live_q_a" data-name="live q&amp;a" xmlns="http://www.w3.org/2000/svg" width="24" height="24" viewBox="0 0 24 24">
  <rect id="Rectangle_1297" data-name="Rectangle 1297" width="24" height="24" fill="#5e6287" opacity="0"/>
  <path id="Path_1250" data-name="Path 1250" d="M7.727,20h4.528a3.487,3.487,0,0,0,3.051-1.825l3.917-7.142L19,10.862l-.012-.01a1.743,1.743,0,0,0-2.478.179l-1.13,1.306a.334.334,0,0,1-.359.094.308.308,0,0,1-.215-.289L14.8,3.158a1.071,1.071,0,1,0-2.142-.043c0,.907,0,1.9,0,2.835,0,2.126,0,3.961,0,4.139a.3.3,0,0,1-.094.217.331.331,0,0,1-.228.089h0a.33.33,0,0,1-.228-.088.3.3,0,0,1-.1-.215c0-.179,0-2.013,0-4.14,0-.918,0-1.881,0-2.771,0-.007,0-.014,0-.021s0-.034,0-.052v-2A1.089,1.089,0,0,0,10.943,0H10.91A1.094,1.094,0,0,0,9.83,1.1v8.99a.324.324,0,0,1-.647,0V2.265a1.064,1.064,0,1,0-2.125,0v7.828a.324.324,0,0,1-.647,0V5.479A1.086,1.086,0,0,0,5.329,4.386H5.3a1.083,1.083,0,0,0-1.071,1.1c-.006,2.521,0,6.967,0,10.946A3.54,3.54,0,0,0,7.727,20Z" transform="translate(0.25 2)" fill="#5e6287"/>
</svg>
