<svg width="36" height="36" viewBox="0 0 36 36" fill="none" xmlns="http://www.w3.org/2000/svg">
<path d="M18 36C27.9411 36 36 27.9411 36 18C36 8.05887 27.9411 0 18 0C8.05887 0 0 8.05887 0 18C0 27.9411 8.05887 36 18 36Z" fill="#FF5555"/>
<path d="M27.714 26.2949L24.314 22.8949C25.4091 21.5019 26.0052 19.7818 26.007 18.0099H24.007C24.0059 19.2529 23.6145 20.4643 22.888 21.4729L21.439 20.0209C21.8069 19.4143 22.0032 18.7193 22.007 18.0099V12.0209C22.0115 10.9607 21.595 9.94211 20.8489 9.18889C20.1028 8.43567 19.0882 8.00945 18.028 8.0039C17.9579 8.00164 17.8878 8.00734 17.819 8.0209C16.7911 8.06926 15.8213 8.51195 15.1113 9.25692C14.4014 10.0019 14.0059 10.9918 14.007 12.0209V12.6059L9.714 8.3139L8.3 9.7259L26.3 27.7069L27.714 26.2949ZM12.007 18.0099H10.007C10.0105 19.956 10.7232 21.8341 12.0117 23.2925C13.3002 24.7509 15.0762 25.6896 17.007 25.9329V27.9999H19.007V25.9329C19.7808 25.8344 20.536 25.6225 21.248 25.3039L19.699 23.7579C18.8049 24.0229 17.8613 24.0754 16.9434 23.9114C16.0254 23.7474 15.1584 23.3713 14.4114 22.8131C13.6644 22.2549 13.0581 21.53 12.6406 20.6961C12.2232 19.8622 12.0062 18.9424 12.007 18.0099Z" fill="white"/>
<path d="M14.014 18.0749C14.033 19.1102 14.4527 20.0978 15.1849 20.83C15.9171 21.5622 16.9047 21.9819 17.94 22.0009L14.014 18.0749Z" fill="white"/>
</svg>
