<svg id="Pin_Inactive" data-name="Pin Inactive" xmlns="http://www.w3.org/2000/svg" width="32" height="32" viewBox="0 0 32 32">
  <circle id="Ellipse_75" data-name="Ellipse 75" cx="16" cy="16" r="16" fill="#3c4066"/>
  <g id="Group_866" data-name="Group 866" transform="translate(-241 -489)">
    <g id="Rectangle_836" data-name="Rectangle 836" transform="translate(249 497)" fill="#fff" stroke="#707070" stroke-width="1" opacity="0">
      <rect width="16" height="16" stroke="none"/>
      <rect x="0.5" y="0.5" width="15" height="15" fill="none"/>
    </g>
    <g id="bxs-pin" transform="matrix(0.966, 0.259, -0.259, 0.966, 249.67, 493.718)" fill="none">
      <path d="M12,8.231V4.6h1.333V3.3A1.317,1.317,0,0,0,12,2H8A1.317,1.317,0,0,0,6.667,3.3V4.6H8V8.231L6.2,9.34A.639.639,0,0,0,6,9.8v1.3a.658.658,0,0,0,.667.65H9.333V14.7L10,16l.667-1.3V11.75h2.667A.658.658,0,0,0,14,11.1V9.8a.639.639,0,0,0-.2-.46Z" stroke="none"/>
      <path d="M 8 3 C 7.816200256347656 3 7.666669845581055 3.134579658508301 7.666669845581055 3.300000190734863 L 7.666669845581055 3.600000381469727 L 8 3.600000381469727 L 9 3.600000381469727 L 9 4.600000381469727 L 9 8.230899810791016 L 9 8.789959907531738 L 8.523750305175781 9.082770347595215 L 7 10.01960372924805 L 7 10.75 L 8 10.75 L 9.333330154418945 10.75 L 10.33333015441895 10.75 L 10.66666984558105 10.75 L 13 10.75 L 13 10.01960372924805 L 11.47624969482422 9.082770347595215 L 11 8.789959907531738 L 11 8.230899810791016 L 11 4.600000381469727 L 11 3.600000381469727 L 12 3.600000381469727 L 12.33333015441895 3.600000381469727 L 12.33333015441895 3.300000190734863 C 12.33333015441895 3.134579658508301 12.18379974365234 3 12 3 L 8 3 M 8 2 L 12 2 C 12.73600006103516 2 13.33333015441895 2.582400321960449 13.33333015441895 3.300000190734863 L 13.33333015441895 4.600000381469727 L 12 4.600000381469727 L 12 8.230899810791016 L 13.8046703338623 9.340450286865234 C 13.93000030517578 9.461999893188477 14 9.627099990844727 14 9.800000190734863 L 14 11.10000038146973 C 14 11.45944976806641 13.70199966430664 11.75 13.33333015441895 11.75 L 10.66666984558105 11.75 L 10.66666984558105 14.69999980926514 L 10 16 L 9.333330154418945 14.69999980926514 L 9.333330154418945 11.75 L 8 11.75 L 6.666669845581055 11.75 C 6.298669815063477 11.75 6 11.45944976806641 6 11.10000038146973 L 6 9.800000190734863 C 6 9.627099990844727 6.069999694824219 9.461999893188477 6.195329666137695 9.340450286865234 L 8 8.230899810791016 L 8 4.600000381469727 L 6.666669845581055 4.600000381469727 L 6.666669845581055 3.300000190734863 C 6.666669845581055 2.582400321960449 7.263999938964844 2 8 2 Z" stroke="none" fill="#fff"/>
    </g>
  </g>
</svg>
