<svg xmlns="http://www.w3.org/2000/svg" width="24" height="24" viewBox="0 0 24 24">
  <g id="Refresh" transform="translate(1222 -11115)">
    <g id="Rectangle_319" data-name="Rectangle 319" transform="translate(-1222 11115)" fill="#fff" stroke="#707070" stroke-width="1" opacity="0">
      <rect width="24" height="24" stroke="none"/>
      <rect x="0.5" y="0.5" width="23" height="23" fill="none"/>
    </g>
    <path id="bx-refresh" d="M10,11H7.1a.028.028,0,0,1,0-.009,4.956,4.956,0,0,1,.291-.937,5,5,0,0,1,1.813-2.2,5,5,0,0,1,.848-.46,4.9,4.9,0,0,1,.938-.291,5.078,5.078,0,0,1,2.018,0,4.978,4.978,0,0,1,.937.291,5.1,5.1,0,0,1,.85.461,4.917,4.917,0,0,1,.738.609l1.416-1.412A6.925,6.925,0,0,0,15.915,6.2a7.036,7.036,0,0,0-1.188-.646,6.921,6.921,0,0,0-1.315-.408,7.079,7.079,0,0,0-2.819,0A7.017,7.017,0,0,0,8.086,6.2,7.04,7.04,0,0,0,7.05,7.05,6.9,6.9,0,0,0,6.2,8.085a6.978,6.978,0,0,0-.646,1.19,6.877,6.877,0,0,0-.408,1.315c-.028.135-.043.273-.063.41H2l4,4Zm4,2h2.9s0,.006,0,.008a4.841,4.841,0,0,1-.292.938,4.976,4.976,0,0,1-.459.848,5.1,5.1,0,0,1-.613.742,5.045,5.045,0,0,1-.739.61,5.127,5.127,0,0,1-.849.461,4.943,4.943,0,0,1-.938.291,5.073,5.073,0,0,1-2.017,0,4.956,4.956,0,0,1-.937-.291,5.012,5.012,0,0,1-1.59-1.071L7.05,16.95a7.012,7.012,0,0,0,2.225,1.5,6.877,6.877,0,0,0,1.315.408,7.061,7.061,0,0,0,2.818,0,6.877,6.877,0,0,0,1.317-.409,6.991,6.991,0,0,0,4.131-5.039c.027-.135.043-.273.063-.41H22L18,9Z" transform="translate(-1222 11115)" fill="#fff"/>
  </g>
</svg>
