<svg xmlns="http://www.w3.org/2000/svg" width="24" height="24" viewBox="0 0 24 24">
  <g id="stats" transform="translate(-10656 -2864)">
    <g id="Rectangle_1298" data-name="Rectangle 1298" transform="translate(10656 2864)" fill="#5e6287" stroke="#707070" stroke-width="1" opacity="0">
      <rect width="24" height="24" stroke="none"/>
      <rect x="0.5" y="0.5" width="23" height="23" fill="none"/>
    </g>
    <path id="bxs-bar-chart-square" d="M21,19V5a2,2,0,0,0-2-2H5A2,2,0,0,0,3,5V19a2,2,0,0,0,2,2H19A2,2,0,0,0,21,19ZM9,18H7V12H9Zm4,0H11V7h2Zm4,0H15V10h2Z" transform="translate(10656 2864)" fill="#5e6287"/>
  </g>
</svg>
