<svg width="36" height="36" viewBox="0 0 36 36" fill="none" xmlns="http://www.w3.org/2000/svg">
<path d="M18 36C27.9411 36 36 27.9411 36 18C36 8.05887 27.9411 0 18 0C8.05887 0 0 8.05887 0 18C0 27.9411 8.05887 36 18 36Z" fill="#FF5555"/>
<path fill-rule="evenodd" clip-rule="evenodd" d="M8.406 13.184C8 14.04 8 15.16 8 17.4V18.6C8 20.84 8 21.96 8.406 22.816C8.75036 23.5554 9.31942 24.1671 10.032 24.564C10.828 25 11.87 25 13.953 25H16C18.084 25 19.126 25 19.922 24.564C20.6346 24.1671 21.2036 23.5554 21.548 22.816C21.7568 22.3363 21.8761 21.8226 21.9 21.3C21.8996 21.1287 21.9443 20.9603 22.0297 20.8118C22.115 20.6633 22.238 20.5399 22.3862 20.454C22.5345 20.3681 22.7027 20.3228 22.874 20.3227C23.0453 20.3225 23.2136 20.3674 23.362 20.453L26.587 22.572C26.7324 22.6609 26.8994 22.7083 27.0698 22.7088C27.2402 22.7094 27.4076 22.6632 27.5535 22.5752C27.6995 22.4872 27.8185 22.3608 27.8976 22.2098C27.9766 22.0589 28.0128 21.8891 28.002 21.719V14.283C28.0128 14.1129 27.9766 13.9431 27.8976 13.7922C27.8185 13.6412 27.6995 13.5148 27.5535 13.4268C27.4076 13.3388 27.2402 13.2926 27.0698 13.2932C26.8994 13.2937 26.7324 13.3411 26.587 13.43L23.359 15.549C23.2105 15.6339 23.0423 15.6783 22.8713 15.6776C22.7003 15.677 22.5324 15.6313 22.3846 15.5453C22.2368 15.4593 22.1142 15.3359 22.0291 15.1875C21.9441 15.0392 21.8995 14.871 21.9 14.7C21.8772 14.1769 21.759 13.6625 21.551 13.182C21.2066 12.4426 20.6376 11.8309 19.925 11.434C19.126 11 18.084 11 16 11H13.953C11.87 11 10.828 11 10.032 11.436C9.31942 11.8329 8.75036 12.4446 8.406 13.184V13.184Z" fill="white"/>
<path d="M8.00215 9L26.0022 27" stroke="white" stroke-width="2"/>
<path d="M7.20215 11L25.2021 29Z" fill="#5E6287"/>
<path d="M7.20215 11L25.2021 29" stroke="#FF5555" stroke-width="2"/>
</svg>
