<svg xmlns="http://www.w3.org/2000/svg" width="24" height="19.655" viewBox="0 0 24 19.655">
  <path id="megaphone_active" d="M2.655,15.423A2.359,2.359,0,0,1,0,16.283l2.647,4.585a2.376,2.376,0,0,1,2.005-1.985L20,15.151,13.665,4.179,2.655,15.423ZM13.8,16.656l-.289,3.592a1.064,1.064,0,0,1-.769.771l-2.952.774a1.057,1.057,0,0,1-1.018-.28L6.813,18.36l1.375-.344,1.259,2.16a.7.7,0,0,0,.674.186l1.6-.425a.7.7,0,0,0,.511-.512l-.323-2.316,1.891-.453Zm8.9-9.793L20.01,8.476l-.756-1.262L21.94,5.6ZM18.3,5.7l-1.335-.616,1.342-2.914,1.335.617Zm5.619,6.157-3.2-.174.081-1.469,3.2.175-.083,1.468Z" transform="translate(0 -2.172)" fill="#4ec47f"/>
</svg>
