<svg width="24" height="20" viewBox="0 0 24 20" fill="none" xmlns="http://www.w3.org/2000/svg">
<g clip-path="url(#clip0)">
<path d="M2.655 13.251C2.3615 13.6581 1.9458 13.9611 1.46832 14.1157C0.990837 14.2704 0.476473 14.2687 0 14.111L2.647 18.696C2.72525 18.1943 2.96215 17.7309 3.32297 17.3737C3.6838 17.0165 4.14956 16.7842 4.652 16.711L20 12.979L13.665 2.007L2.655 13.251ZM13.8 14.484L13.511 18.076C13.4642 18.2619 13.368 18.4316 13.2326 18.5673C13.0972 18.703 12.9277 18.7997 12.742 18.847L9.79 19.621C9.61066 19.6677 9.42221 19.6664 9.24354 19.6172C9.06486 19.5681 8.90225 19.4728 8.772 19.341L6.813 16.188L8.188 15.844L9.447 18.004C9.53318 18.0914 9.64082 18.1545 9.75911 18.1872C9.87741 18.2198 10.0022 18.2208 10.121 18.19L11.721 17.765C11.8447 17.7343 11.9577 17.6704 12.0478 17.5801C12.1378 17.4899 12.2015 17.3768 12.232 17.253L11.909 14.937L13.8 14.484V14.484ZM22.7 4.691L20.01 6.304L19.254 5.042L21.94 3.428L22.7 4.691ZM18.3 3.528L16.965 2.912L18.307 -0.0019989L19.642 0.615001L18.3 3.528ZM23.919 9.685L20.719 9.511L20.8 8.042L24 8.217L23.917 9.685H23.919Z" fill="white"/>
</g>
<defs>
<clipPath id="clip0">
<rect width="24" height="19.655" fill="white"/>
</clipPath>
</defs>
</svg>
