<svg width="43" height="40" viewBox="0 0 43 40" fill="none" xmlns="http://www.w3.org/2000/svg">
<path d="M8.63148 19.5H2.36852C1.56982 19.5 1.09343 20.3901 1.53647 21.0547L4.66795 25.7519C5.06377 26.3457 5.93623 26.3457 6.33205 25.7519L9.46353 21.0547C9.90657 20.3901 9.43018 19.5 8.63148 19.5Z" fill="#5E6287"/>
<g clip-path="url(#clip0)">
<path d="M42.2279 20.1183C42.2128 22.6862 41.692 25.1695 40.6881 27.5015C39.7145 29.7595 38.3253 31.785 36.5655 33.5188C34.8058 35.2526 32.7579 36.6137 30.4817 37.5577C28.1308 38.531 25.6265 39.021 23.0581 39.0059C22.3211 39.0016 21.7216 38.3969 21.7259 37.6621C21.7303 36.9274 22.3368 36.3297 23.0738 36.3341C25.2849 36.3471 27.4314 35.9292 29.4539 35.0876C31.4093 34.2752 33.1731 33.1129 34.6857 31.6226C36.1983 30.1322 37.3923 28.3876 38.2226 26.4554C39.0905 24.4491 39.5349 22.3142 39.5478 20.1099C39.5608 17.9057 39.1416 15.7657 38.2973 13.7493C37.4823 11.8 36.309 10.0415 34.814 8.53346C33.319 7.02543 31.569 5.83504 29.6308 5.00723C27.6183 4.14187 25.4768 3.6988 23.2657 3.6858C21.0547 3.67281 18.9081 4.09066 16.8856 4.93231C14.9378 5.7447 13.159 6.92176 11.6538 8.40474C10.1488 9.88029 8.94724 11.6397 8.11695 13.5719C7.24904 15.5708 6.80469 17.7057 6.79173 19.91C6.78741 20.6447 6.18087 21.2423 5.44386 21.238C4.70684 21.2337 4.10737 20.6289 4.11169 19.8942C4.12678 17.3263 4.64763 14.843 5.6515 12.5109C6.6252 10.2455 8.01436 8.22748 9.77408 6.49366C11.5338 4.75983 13.5817 3.3988 15.8579 2.45474C18.2088 1.47401 20.7131 0.991456 23.2815 1.00655C25.8499 1.02165 28.3483 1.54103 30.6875 2.54191C32.9525 3.51266 34.9842 4.89768 36.7235 6.65207C38.4627 8.40647 39.828 10.4481 40.775 12.7174C41.7588 15.0611 42.243 17.5503 42.2279 20.1183Z" fill="#5E6287"/>
<path d="M19.5547 14.0365L28.7519 20.1679C29.3457 20.5638 29.3457 21.4362 28.7519 21.832L19.5547 27.9635C18.8901 28.4066 18 27.9302 18 27.1315V14.8685C18 14.0698 18.8901 13.5934 19.5547 14.0365Z" fill="#5E6287"/>
</g>
<defs>
<clipPath id="clip0">
<rect width="38" height="38.1169" fill="white" transform="translate(4 38.8939) rotate(-89.6632)"/>
</clipPath>
</defs>
</svg>
